/* XPM */
static char *coin[] = {
/* columns rows colors chars-per-pixel */
"63 63 7 1 ",
"  c #0B5F61",
". c #A09028",
"X c #C0A838",
"o c #E0C838",
"O c #F8F050",
"+ c #F8F880",
"@ c None",
/* pixels */
"@@@@@@@@@@@@@@@@@@@@@@@@@XXXOOOOoooo@@@@@@@@@@@@@@@@@@@@@@@@@@ ",
"@@@@@@@@@@@@@@@@@@@@@XOOOOOOOOOOOOOOO+o@@@@@@@@@@@@@@@@@@@@@@@ ",
"@@@@@@@@@@@@@@@@@@XOOOOOOOOOOOOOOOOO+++++o@@@@@@@@@@@@@@@@@@@@ ",
"@@@@@@@@@@@@@@@@XOOOOOOOOOOOOOOOOOO++++++++o@@@@@@@@@@@@@@@@@@ ",
"@@@@@@@@@@@@@@XOOOOOOOOOOOOOOOOOOOO++++++++++o@@@@@@@@@@@@@@@@ ",
"@@@@@@@@@@@@@XOOOOOOOOOOOOOOOOOOOO++++++++++++o@@@@@@@@@@@@@@@ ",
"@@@@@@@@@@@XoOOOOOOOOOOOOoooooooooo+++++++++++++o@@@@@@@@@@@@@ ",
"@@@@@@@@@@XoooOOOOOOOOooooOOOOOOOOoooo+++++++++++o@@@@@@@@@@@@ ",
"@@@@@@@@@XoooooOOOOoooOOOOOOOOOOO+++++ooo+++++++++o@@@@@@@@@@@ ",
"@@@@@@@@XooooooOOOooOOOOOOOOOOOOO+++++++oo+++++++++o@@@@@@@@@@ ",
"@@@@@@@XoooooooOooOOOOOOOOOOOOOO++++++++++oo++++++++o@@@@@@@@@ ",
"@@@@@@XoooooooooOOOOOOOOO+++++++++++++++++++o++++++++o@@@@@@@@ ",
"@@@@@@oooooooooOOOOOOOOOO+XXXXXXXX.++++++++++o++++++++@@@@@@@@ ",
"@@@@@XooooooooOOOOOOOOOOO+XOOOOO++.+++++++++++o+++++++O@@@@@@@ ",
"@@@@XoooooooooOOOOOOOOOOO+XOOOOO++.++++++++++++o+++++++o@@@@@@ ",
"@@@@oooooooOooOOOOOOOOOOO+XOOOOOO+.+++++++++++++o+++++++@@@@@@ ",
"@@@XooooooOoooOOOOOOOOOOO+XOOOOOO+.++++++++++++++o++++++o@@@@@ ",
"@@@ooooooooooooOOOOOOOOOO+XOOOOOOO.++++++++++++++o++++++O@@@@@ ",
"@@XooooooOooooooOOOOOOOOO+XOOOOOOO.+++++++++++++++o++++OOX@@@@ ",
"@@ooooooOooooooooOOOOOOOO+XOOOOOOO.+++++++++++++++oo++OOOO@@@@ ",
"@@ooooooOoooooooooOOOOOOO+XOOOOOOO.++++++++++++++++oOOOOOOX@@@ ",
"@XoooooooooooooooooOOOOOO+XOOOOOOO.+++++++++++++++OoOOOOOOX@@@ ",
"@ooooooOooooooooooooOOOOO+XOOOOOOO.++++++++++++++OOOoOOOOOO@@@ ",
"@ooooooOoooooooooooooOOOO+XOOOOOOO.++++++++++++OOOOOoOOOOOO@@@ ",
"XoooooooooooooooooooooOOO+XOOOOOOO.++++++++++OOOOOOOoOOOOOOX@@ ",
"XoooooOooooooooooooooooOO+XOOOOOOO.OOOOOOOOOOOOOOOOOooOOOOOX@@ ",
"XoooooOoooooooooooooooooO+XOOOOOOO.OOOOOOOOOOOOOOOOOOoOOOOOX@@ ",
"XoooooOooooooooooooooooooOXOOOOOOO.OOOOOOOOOOOOOOOOOOoOOOOOX@@ ",
"XoooooOooooooooooooooooooOXOOOOOOO.OOOOOOOOOOOOOOOOOOoOOOOOX@@ ",
"XoooooOooooooooooooooooooOXOOOOOOO.OOOOOOOOOOOOOOOOOOoOOOOOX@@ ",
"XoooooOooooooooooooooooooOXOOOOOOO.OOOOOOOOOOOOOOOOOOoOOOOOX@@ ",
"XoooooOooooooooooooooooooOXOOOOOOO.OOOOOOOOOOOOOOOOOOoOOOOOX@@ ",
"XoooooOooooooooooooooooooOXOOOOOOO.oOOOOOOOOOOOOOOOOOoOOOOOX@@ ",
"XoooooOooooooooooooooooooOXOOOOOOO.oooOOOOOOOOOOOOOOOOOOOOOX@@ ",
"XXooooOooooooooooooooooooOXOOOOOOO.oooooooooOOOOOOOOoOOOOOoX@@ ",
"XXXooooOXXoooooooooooooooOXOOOOOOO.oooooooooooooOOOooOOOOooX@@ ",
"@XXooooOXXXooooooooooooooOoooOOOOO.oooooooooooooooooOoooooo@@@ ",
"@XXXXooOXXXXoooooooooooooOoooooOOO.oooooooooooooooooOoooooo@@@ ",
"@XXXXXooOXXXXooooooooooooOoooooooO.oooooooooooooooooOoooooX@@@ ",
"@@XXXXXXOXXXXXXXoooooooooOoooooooo.ooooooooooooooooOoooooo@@@@ ",
"@@XXXXXXOOXXXXXXXXoooooooOoooooooo.ooooooooooooooooOoooooo@@@@ ",
"@@XXXXXXXOXXXXXXXXoooooooOoooooooo.oooooooooooooooOooooooX@@@@ ",
"@@@XXXXXXXOXXXXXXXXXXXXooOoooooooo.oooooooooooooooooooooo@@@@@ ",
"@@@XXXXXXXOXXXXXXXXXXXXooOoooooooo.ooooooooooooooOooooooX@@@@@ ",
"@@@@XXXXXXXOXXXXXXXXXXXXXOoooooooo.oooooooooooooOooooooo@@@@@@ ",
"@@@@XXXXXXXXOXXXXXXXXXXXXOoooooooo.ooooooooooooooooooooX@@@@@@ ",
"@@@@@XXXXXXXXOXXXXXXXXXXXOoooooooo.oooooooooooOoooooooX@@@@@@@ ",
"@@@@@@XXXXXXXXOXXXXXXXXXXOOOOOOOOO.ooooooooooOoooooooo@@@@@@@@ ",
"@@@@@@XXXXXXXXXOXXXXXXXXXXXXXXXXXXooooooooooOooooooooX@@@@@@@@ ",
"@@@@@@@XXXXXXXXXOOXXXXXXXXXXXXXXXXXXoooooooOooooooooX@@@@@@@@@ ",
"@@@@@@@@XXXXXXXXXXOOXXXXXXXXXXXXXXXXXXoooOoooooooooX@@@@@@@@@@ ",
"@@@@@@@@@XXXXXXXXXXOOOXXXXXXXXXXXXXXXXOOOoooooooooX@@@@@@@@@@@ ",
"@@@@@@@@@@XXXXXXXXXXXoOOOoXXXXXXXXoOOOoooooooooooX@@@@@@@@@@@@ ",
"@@@@@@@@@@@XXXXXXXXXXXXXXOOOOOOOOOOoooooooooooooX@@@@@@@@@@@@@ ",
"@@@@@@@@@@@@@XXXXXXXXXXXXXXXXXXXXXXXXXXXooooooX@@@@@@@@@@@@@@@ ",
"@@@@@@@@@@@@@@XXXXXXXXXXXXXXXXXXXXXXXXXXXooooX@@@@@@@@@@@@@@@@ ",
"@@@@@@@@@@@@@@@@XXXXXXXXXXXXXXXXXXXXXXXXXXXX@@@@@@@@@@@@@@@@@@ ",
"@@@@@@@@@@@@@@@@@@XXXXXXXXXXXXXXXXXXXXXXXX@@@@@@@@@@@@@@@@@@@@ ",
"@@@@@@@@@@@@@@@@@@@@@XXXXXXXXXXXXXXXXXXX@@@@@@@@@@@@@@@@@@@@@@ ",
"@@@@@@@@@@@@@@@@@@@@@@@@@XXXXXXXXXXX@@@@@@@@@@@@@@@@@@@@@@@@@@ ",
"@@@@@@@@@@@@@@@@@@@@@@@@@@@@@@@@@@@@@@@@@@@@@@@@@@@@@@@@@@@@@@ ",
"@@@@@@@@@@@@@@@@@@@@@@@@@@@@@@@@@@@@@@@@@@@@@@@@@@@@@@@@@@@@@@ ",
"                                                               "
};
