/* XPM */
static char *e53324d1775b4d598991834e62d0cc743ehmRh6K7NRouzG3[] = {
/* columns rows colors chars-per-pixel */
"16 16 2 1 ",
"  c black",
". c white",
/* pixels */
"                ",
"     ......     ",
"    ........    ",
"    ........    ",
"   ..........   ",
"   ..      ..   ",
"   ..........   ",
"   ....  ....   ",
"   ..........   ",
"   ..........   ",
" .............. ",
" .............. ",
" ..          .. ",
" .............. ",
" .............. ",
"                "
};
