/* XPM */
static char *Mobile_Final_Fantasy_Record_Keeper_Vampire[] = {
/* columns rows colors chars-per-pixel */
"88 97 20 1 ",
"  c #101010",
". c #131E1C",
"X c #282B2A",
"o c #540012",
"O c #4B3C37",
"+ c #7C7330",
"@ c #292C47",
"# c #4C4B59",
"$ c #72564C",
"% c #676B66",
"& c #900030",
"* c #E84848",
"= c #A8907E",
"- c #CDC369",
"; c #586090",
": c #717C93",
"> c #9EA49C",
", c #808EC6",
"< c #E4E8F0",
"1 c None",
/* pixels */
"1111111111111111111111111111111111111111111111111111111111111111111111111111111111111111",
"1111111111111111111111111111111111111111111111111111111111111111111111111111111111111111",
"1111111111111111111111111111111111111111111111111111111111111111111111111111111111111111",
"1111111111111111111111111111111111111111111111111111111111111111111111111111111111111111",
"1111111111111111111111111111111111111111111111111111111111111111111111111111111111111111",
"1111111111111111111111111111111111111111111111111111111111111111111111111111111111111111",
"1111111111111111111111111111111111111111111111111111111111111111111111111111111111111111",
"1111111111111111111111111111111111111111111111111111111111111111111111111111111111111111",
"1111111111111111111111111111111111111111111111111111111111111111111111111111111111111111",
"1111111111111111111111111111111111111111111111111111111111111111111111111111111111111111",
"1111111111111111111111111111111111111111111111111111111111111111111111111111111111111111",
"1111111111111111111111111111111111111111111111111111111111111111111111111111111111111111",
"1111111111111111111111111111111111111111111111111111111111111111111111111111111111111111",
"1111111111111111111111111111111111111111111111111111111111111111111111111111111111111111",
"1111111111111111111111111111111111111111111111111111111111111111111111111111111111111111",
"1111111111111111111111111111111111111111111111111111111111111111111111111111111111111111",
"1111111111111111111111111111111111111111111111111111111111111111111111111111111111111111",
"11111111111111111111111111111111111111@@#@@####@1111111111111111111111111111111111111111",
"11111111111111111111111111111111X@##@@#:<#:::@@11111111111111111111111111111111111111111",
"11111111111111111111111111111.X@%:>>#:>##@@@##111111111111111111111111111111111111111111",
"1111111111111111111111111111.#:>>#::#@@@.O%%:>#111111111111@@@11111111111111111111111111",
"111111111111111111111111111.@#@@@  X.X..OOOX@@111111111111 #::@1111111111111111111111111",
"111111111111111111111111111..X@##::::#X...@@11111111@#@@11 X @: 111111111111111111111111",
"111111111111111111111111111.X..X@@@OX....#># 11111@@>>:: 11 O @# 11111111111111111111111",
"1111111111111111111111111111.;;@@XX..@#+-+@@ 1111.#>:@#@ @1 X+ - 11111111111111111111111",
"1111111111111111111111111111  O,XXXO%%+>@  111XX1.:<#<>:# 1  O - @1111111111111111111111",
"1111111111111111111111111111.XX,%>>%OXX. 111 XO%.@>:<> @:  XX @#@ 1111111111111111111111",
"111111111111111111111111111.XX;;#XXXX  11111 O X.@>@<#@  1  X # + 1111111111111111111111",
"11111111111111111111111111.X;,,%%#X...111111  O .#:@>  1111  :@ O 1111111111111111111111",
"11111111111111111111111111.X%%>>%%##XX..11111 X.X#>#: 111. #:@ @ 11111111111111111111111",
"11111111111111111111111...  @##>%OXXO.:..11   . #X#:#@   O#.  @. 11111111111111111111111",
"11111111111111111111111.@@#<-+@O...@XO.@...@  . #X#%>@ X.  .> . 111111111111111111111111",
"11111111111111111111111.#:-+X   #>-+.  X@OOOO@  #X:># X#:O@:@  1111111111111111111111111",
"111111111111111111111111.    @+:><#@ @@.XOO$$O. X#:#@ ..#$O.  1@111111111111111111111111",
"11111111111111111111111  #:#@-:#@@..@:>-+X$=$OX .#:#@  ..@$. 1@:@11111111111111111111111",
"111111111111111111111...@>@.++@...@#:#@@:#X==$X  @>: .  .#@X. +<@11111111111111111111111",
"1111111111111111111XX#+::# ...XX..  #>-#@@X$=$.. .:# XX  +-@X .-@11111111111111111111111",
"1111111111111111111.%%%@#@  XX.   @@ @+<-#X$$X.O @:@.OX. @#+O @.O.1111111111111111111111",
"1111111111111111111.X@XX##@     @@>#@.#@  o$O.O= @#.OOOX ..XO.#>O.1111111111111111111111",
"111111111111111111111X..    :@>.@#:>#@  XoOOX.$=O#..$$OXX #:X.@:XX.111111111111111111111",
"1111111111111111111.     @#<@##  #@  .XO$&##@XX$@#@.#XXO. @>...OOX.111111111111111111111",
"111111111111111111X;X..-+->#@  X.  .X.O$$&#::@.OX@#o:#..X  ...@:@. 111111111111111111111",
"11111111111111111XXO;<-+##@.  XXOOO..o$@@:*>:.=<=.:&>#o . -@X.##X  111111111111111111111",
"111111111111111XXO%%,%%OXX..   X.   .X&@#:&>#@.$X.*#:&o. +:@.@.XOX 111111111111111111111",
"111111111111XXXO><<>,%OXX@@#:-+  11  .X&*##&@#.=$X&:&@@  @.. @>@X. 111111111111111111111",
"11111111111XO%><>>>%;O-+->#@+@@ 1111 ..##&:#&#...&:@oX.  .X. ##X. X.11111111111111111111",
"1111111111X%->%<%>%,@+###@@    1111  .o&#@##>oX%X&#&@. #>@O .  .>@XX..111. .111111111111",
"111111111 %-%%O>OO;@XXX.  @>@@11111         X.&.o#oX@ .@#X. %O. :X,;X;...@ .111111111111",
"111111111X+%OXOOXXX.    #<-@:# 111 .   XX    *&&.#@o .X. . .O :@.,@X;X;X+# 1111111111111",
"111111111X%-XOXX.   .X:><+#:@  111   X..o@%.  ..X  . . X. #.. #..;XO;O,O#@.1111111111111",
"111111111.O>XX  11 XO%+-#@   111111 XO...  ##X   1    .  .X#.  O%;X@;,%>>.. 111111111111",
"111111111.XO..1111 .XOO...X+X #X1  XO.oooX  OO 11111 @  @@.XO. XO%;,%%OOX@@ 111111111111",
"111111111..O. 11111..XOO%>+O+X #X X$.o o @. O+$.11111 @  .#.XO. .<XXXO%:##..@..111111111",
"1111111111.X.111111 OO>>O%XX.. :X $oo. o@@.X $+$.11111 .  XO.OX X>%X>%OX.@###@@. 1111111",
"1111111111.. 111111 ,%OOXX.. 1 :X X...o@.@X...$$@.1111 .. .%XX%. .OO<%>-<-:+@...11111111",
"11111111111  11111 .@,XX..@@@ #:X .X@#&@.@. X%O.X.11111 X. X%XOX  .XO%%%:#...11111111111",
"111111111111111111.XO,@@@-<-+ :#O O$+$..O%   X%%O@.1111 X. .%XXO.X     .. 11111111111111",
"11111111111111111.X%;,:>-+@@  #X+ $O.XOX%  ..  O%+@.111 .X X%XOXO. .% XO#@.1111111111111",
"1111111111111111.X%%,%#@  #:@X++ OX.XO%%X  XX..  X%.1111 X .%O%@%X.;O  .X..1111111111111",
"1111111111111111.@,;OX.  .  OXXO  .X%+OX    .OOX. XO 111 O. >%>O#X.@; .XO..11..111111111",
"1111111111111111.O%>%O%O%OXXX   .X%%-%X X  .  XO X . 111 #. %X>@+O.O,....@...@@.11111111",
"11111111111111111.X%>%OX.    111 XO++OX.O   .X.O O. 111 @@  X %@:#.O,O @@#::#@...1111111",
"1111111111111111  .O%O@@.1111111 .XO%X %O .  .OX %O. 11 @. X  O.-#.@;O XOO#@..1111111111",
"1111111111111111 @@@##-:# 1111111 X%O O%X ... . X%%X 11  1 O.   <:.;O%      111111111111",
"1111111111111111 @+-<-#@@ 1111111 OX X%% ..     XO%O 111111.  X+-# O%> #@#@ 111111111111",
"111111111111111.XO@@+XXX..@111111.  X%%O .  111  XOO 111111XX. :#@ O%> #.@+ 111111111111",
"11111111111111 .%%%%>.#X@:#@111111  X%XX  111111 .XX 1111.X#.X  @  %>O ..@-+ 11111111111",
"11111111111111@@%O>>>O#. @:#@1111..  XX 1111111 .XOX 111..#X.O%   X%>. 1..:> 11111111111",
"1111111111111 :#XO%>%X@#  @:#@11.X .    1111111 XO+.1111.##X.+@%@#O<>. 11.#-@ 1111111111",
"1111111111111@:@.XO%X @# 1 @:@11.O X.. 11111111 XO% 11111XX..#@#X:O<%.  1 @.+ 1111111111",
"111111111111@:#@  #>@ @:@ 1 @@11.O.X+ 111111111 .XO 11111..1... X:@>O .O  .## 1111111111",
"111111111111@:@ 1 @:#  #:.111111 X+OX 1111111111.X.11111111111   O@+@ ..O  :@ 1111111111",
"11111111111@:# 11 @:#  @:@11111  .X  11111111111 . 111111111111 .@-# .@.@+#   1111111111",
"11111111111@:# 111 #: 1 @111111 X.  111111111111 O.111111111111 @@+@  .#:>>+@  111111111",
"11111111111   1111 @:@111111111.O .1111111111111 OX 1111111111 .@-#.11 .##@@##@# 1111111",
"111111111111111111 @:@111111111XO .111111111111  X. .111111111 .+:# 111  +-+-@@ 11111111",
"1111111111111111111 @@11111111.O..1111111111111 X.O%O...X1111 .@#: 111111  .###@@1111111",
"111111111111111111111111111111.X.X1111111111111 ..XO%%O%>XX 11 @#@ 111111 @      1111111",
"11111111111111111111111111111.. X.1111111111111 .X..O%>>.%## 11.@ 1111111 @#. 1111111111",
"11111111111111111111111111111 .O%OX1111111111111    ..O%#.X@@ 1  1111111111 @ 1111111111",
"11111111111111111111111111111 ..O%O..X11111111111111  ..X@.. 11111111111111  11111111111",
"11111111111111111111111111111 O..O>>%#X 11111111111111   ..11111111111111111111111111111",
"111111111111111111111111111111  X.X% X#X 11111111111111111111111111111111111111111111111",
"11111111111111111111111111111111 ..@# @.111111111111111111111111111111111111111111111111",
"111111111111111111111111111111111  X@ .1111111111111111111111111111111111111111111111111",
"1111111111111111111111111111111111  .111111111111111111111111111111111111111111111111111",
"1111111111111111111111111111111111111111111111111111111111111111111111111111111111111111",
"1111111111111111111111111111111111111111111111111111111111111111111111111111111111111111",
"1111111111111111111111111111111111111111111111111111111111111111111111111111111111111111",
"1111111111111111111111111111111111111111111111111111111111111111111111111111111111111111",
"1111111111111111111111111111111111111111111111111111111111111111111111111111111111111111",
"1111111111111111111111111111111111111111111111111111111111111111111111111111111111111111",
"1111111111111111111111111111111111111111111111111111111111111111111111111111111111111111",
"1111111111111111111111111111111111111111111111111111111111111111111111111111111111111111",
"1111111111111111111111111111111111111111111111111111111111111111111111111111111111111111",
"1111111111111111111111111111111111111111111111111111111111111111111111111111111111111111",
"1111111111111111111111111111111111111111111111111111111111111111111111111111111111111111"
};
