/* XPM */
static char *wall[] = {
/* columns rows colors chars-per-pixel */
"33 66 194 2 ",
"   c #020204",
".  c #0A0604",
"X  c #0A0A04",
"o  c #0E0A04",
"O  c #0E0E04",
"+  c #120E0C",
"@  c #16120C",
"#  c #1A160C",
"$  c #1E160C",
"%  c #1A1A14",
"&  c #1E1A14",
"*  c #221A0C",
"=  c #221A14",
"-  c #221E14",
";  c #261E14",
":  c #262214",
">  c #2A2214",
",  c #2A2614",
"<  c #2A261C",
"1  c #2E261C",
"2  c #2E2A1C",
"3  c #322A1C",
"4  c #322E1C",
"5  c #362E1C",
"6  c #322E24",
"7  c #362E24",
"8  c #363224",
"9  c #3A3224",
"0  c #3E3224",
"q  c #3A3624",
"w  c #3E3624",
"e  c #3A322C",
"r  c #3A362C",
"t  c #3E362C",
"y  c #3E3A2C",
"u  c #423624",
"i  c #42362C",
"p  c #423A2C",
"a  c #463A2C",
"s  c #423E2C",
"d  c #463E2C",
"f  c #4A3E2C",
"g  c #423E34",
"h  c #463E34",
"j  c #4A422C",
"k  c #4E422C",
"l  c #464234",
"z  c #4A4234",
"x  c #494337",
"c  c #4E4234",
"v  c #4A4634",
"b  c #4E4634",
"n  c #4A463C",
"m  c #4E463C",
"M  c #4E4A3C",
"N  c #524634",
"B  c #524A34",
"V  c #564A34",
"C  c #564E34",
"Z  c #52463C",
"A  c #574B38",
"S  c #524A3C",
"D  c #564A3C",
"F  c #524E3C",
"G  c #564E3C",
"H  c #5A4E3C",
"J  c #5A523C",
"K  c #5E523C",
"L  c #62563C",
"P  c #524E44",
"I  c #564E44",
"U  c #565244",
"Y  c #5A5244",
"T  c #5E5244",
"R  c #5A5644",
"E  c #5E5644",
"W  c #5A564C",
"Q  c #5E564C",
"!  c #5E5A4C",
"~  c #625244",
"^  c #625644",
"/  c #665644",
"(  c #625A44",
")  c #665A44",
"_  c #6A5A44",
"`  c #6A5E44",
"'  c #6E5E44",
"]  c #625A4C",
"[  c #665A4C",
"{  c #625E4C",
"}  c #665E4C",
"|  c #6A5E4C",
" . c #6E5E4C",
".. c #625E54",
"X. c #665E54",
"o. c #6A624C",
"O. c #6E624C",
"+. c #72624C",
"@. c #72664C",
"#. c #76664C",
"$. c #666254",
"%. c #6A6254",
"&. c #6A6654",
"*. c #6E6654",
"=. c #6E6657",
"-. c #6E6A5C",
";. c #726654",
":. c #766654",
">. c #726A54",
",. c #766A54",
"<. c #7A6A54",
"1. c #7E6E54",
"2. c #726A5C",
"3. c #766A5C",
"4. c #726E5C",
"5. c #766E5C",
"6. c #7A6E5C",
"7. c #7E6E5C",
"8. c #7A725C",
"9. c #7E725C",
"0. c #726E64",
"q. c #766E64",
"w. c #767264",
"e. c #7A7264",
"r. c #7E7264",
"t. c #7A7664",
"y. c #7E7664",
"u. c #7A766C",
"i. c #7E766C",
"p. c #7E7A6C",
"a. c #827254",
"s. c #82725C",
"d. c #86725C",
"f. c #82765C",
"g. c #86765C",
"h. c #8A765C",
"j. c #8A7A5C",
"k. c #827664",
"l. c #827A64",
"z. c #867A64",
"x. c #8A7A64",
"c. c #8E7A64",
"v. c #8E7E64",
"b. c #827A6C",
"n. c #867A6C",
"m. c #827E6C",
"M. c #867E6C",
"N. c #8A7E6C",
"B. c #927E64",
"V. c #827A74",
"C. c #827E74",
"Z. c #867E74",
"A. c #8E826C",
"S. c #928264",
"D. c #968264",
"F. c #9A8664",
"G. c #96866C",
"H. c #9A866C",
"J. c #9A8A6C",
"K. c #9E8A6C",
"L. c #868274",
"P. c #8A8274",
"I. c #8E8674",
"U. c #8E8A7C",
"Y. c #928674",
"T. c #928A74",
"R. c #968A74",
"E. c #9A8A74",
"W. c #9A8E74",
"Q. c #9E8E74",
"!. c #928A7C",
"~. c #968E7C",
"^. c #9A8E7C",
"/. c #9E8E7C",
"(. c #9A927C",
"). c #9E927C",
"_. c #A28A6C",
"`. c #A68E6C",
"'. c #A28E74",
"]. c #A69274",
"[. c #A69674",
"{. c #AA9674",
"}. c #AE9674",
"|. c #A2927C",
" X c #A2967C",
".X c #AA967C",
"XX c #AE9A7C",
"oX c magenta",
"OX c #A29684",
"+X c #A69684",
"@X c #A69A84",
"#X c #AE9E84",
"$X c #AA9E8C",
"%X c #AEA28C",
/* pixels */
"oXoXoXoXoXoXoXoXoXoXoXoXoXoXoXoXoXoXoXoXoXoXoXoXoXoXoXoXoXoXoXoXoX",
"oXoXoXoXoXoXoXoXoXoXoXoXoXoXoXoXoXoXoXoXoXoXoXoXoXoXoXoXoXoXoXoXoX",
"oXoXoXoXoXoXoXoXoXoXoXoXoXoXoXoXoXoXoXoXoXoXoXoXoXoXoXoXoXoXoXoXoX",
"oXoXoXoXoXoXoXoXoXoXoXoXoXoXoXoXoXoXoXoXoXoXoXoXoXoXoXoXoXoXoXoXoX",
"oXoXoXoXoXoXoXoXoXoXoXoXoXoXoXoXoXoXoXoXoXoXoXoXoXoXoXoXoXoXoXoXoX",
"oXoXoXoXoXoXoXoXoXoXoXoXoXoXoXoXoXoXoXoXoXoXoXoXoXoXoXoXoXoXoXoXoX",
"oXoXoXoXoXoXoXoXoXoXoXoXoXoXoXoXoXoXoXoXoXoXoXoXoXoXoXoXoXoXoXoXoX",
"oXoXoXoXoXoXoXoXoXoXoXT %.oXoXoXoXoXoXoXoXoXoXoXoXoXoXoXoXoXoXoXoX",
"oXoXoXoXoXoXoXoXoXoX;.^.W.^.I.3.E >.] U 8 oXoXoXoXoXoXoXoXoXoXoXoX",
"oXoXoXoXoXoXoXoXoXoX3.R.E.(.T.^.M.u.w.y.y.$.4.k.~.r.oXoXoXoXoXoXoX",
"oXoXoXoXoXoXoXoXoXoXB n.R.+XOXY.i.p.N.V.C.n.w.k.6.y.T.H ; oXoXoXoX",
"oXoXoXoXoXoX{ R I -.! ,.OXOX$XOX(.N.p.M.n.b.y.i...} } r.: oXoXoXoX",
"oXoXoXoXoX9 0.p.i.p.2.Q ,.).OX%X~.A.b.t.P.m.i.y.-.&.t S , oXoXoXoX",
"oXoXoXoXoX2 { e.e.5.w.Y 1 ;.l.H 2.b.P.b.i.y.t.e.E h z > oXoXoXoXoX",
"oXoXoXoXoXoX] e.b.y.M.e.*.R W X.p.P.L.m.t.V.b.&.] &.;.t 9 oXoXoXoX",
"oXoXoXoXoXoX*.E y.y.k.b.P.2.5.i.m.b.M.Z.b.-.q.r e.b M I S i oXoXoX",
"oXoXoXoXoXoXoXn Q *.p.b.4.e.M.L.L.L.I.>.! S q 3 3 t Y ] ] y oXoX<.",
"oXoXoXoXoXoX/ C G i.w.e.T y.Z.P.t.] n y S q p M F %.} $.E oXoXoX_ ",
"oXoXoXo.I.} V ' E $.b.w.l 8 I F z I Y Q E I X.%.5.5.2.X.-.Y oXoXs ",
"oXoX*.E./.Y.*.G H ^ 5.*.%.X.] Y X.w.E Y Q } Q i.y.*.M p y.! oXoXoX",
"oXoX9.@X@XI.[ s 1 p i.M.p.y.q.X.z F m S s z M m g I 5.n.C.E oXoXoX",
"oXoXG N. Xx.$.Q M 9 l ] *.U R 4.] ! U S l n m v t j p S H oXoXoXoX",
"oXoXoXp v [ } $.E G I.b.!.M.P.e.0.U r e b c s p 9 t w oXoXoXoXoXoX",
"oXoXoXoX: : s I S m 8.p.e.e.%.] D N d z 9 d B H H H V oXoXoXoXoXoX",
"oXoXoXoXoXoXS m S @.~ N G H ^ J H | <.` G ;.1.d.g.s.#.d oXoXoXoXoX",
"oXoX{ ! ] ] { Q y L | L H H D d z v b x D 1.x.a.L c v y 1 oXoXoXoX",
"oXoXp w.n b.5.] I v :._ A j S F X.%.] { m U I W M Q S l * oXoXoXoX",
"oXoX7 w.] l.q.5.! m m Y l h h M R G F z P M P M h t t 9 oXoXoXoXoX",
"oXoX1 ] &.~.U.u.$.Y M W { P s n t l l l t 8 9 r d ^ <.1.' ` oXoXoX",
"oXoX2 t s 3.L.k.q.} D b W Y y y z S x Y Q %.%.5.$.g.F.K.H.` oXoXoX",
"oXoXoX> 7 ,.,.S.B.c.<.O.H 2 7 z Y ! %.%.b.y.I.p.p.z.K.].~ oXoXoXoX",
"oXoXoXoX- 1 d a.J.`.K.D.| 7 w z Q k.i.y.M.I.P.e.| <.D p 2 oXoXoXoX",
"oXoXoXoXoX> g j N ^ <.| B 9 t s 7 p d h d t G h 4 p j y w oXoXoXoX",
"oXoXoXoXoXq m b H H H C K z c z z 4 7 9 4 j T V N y I U d oXoXoXoX",
"oXoXoXoXoXr n S J M b m I ( E U P z l z h w D G Y E E } p oXoXoXoX",
"oXoXoXoXoXq v n z G } $.>.r.y.| $.! l s e 8 4 p h S G z oXoXoXoXoX",
"oXoXoXoXoX; z M m } e.O.2.o.| p h G c k d n y 9 7 p m l 4 oXoXoXoX",
"oXoXoXoXoXoX9 z v n h g w t v G V z B s t y t g w b d 7 e oXoXoXoX",
"oXoXoXoXoXoXoXf b l z M Y G ] %.! d t g p l y t 2 p j & oXoXoXoXoX",
"oXoXoXoXoXoXoXoXw i d z b a H J N d p z n z p 4 p 5 6 * oXoXoXoXoX",
"oXoXoXoXoXoXoX: 7 9 9 b K G v 9 V 9 p b j b t f 5 t r * oXoXoXoXoX",
"oXoXoXoXoX4 2 7 z G y 9 c H ) c p d ~ J i p p s r 8 t > oXoXoXoXoX",
"oXoXoXoXoX9 c V m B z v z S E Q G z h s z y 8 z m z y 2 oXoXoXoXoX",
"oXoXoXoXoX; p J V S I Y M U 5.8.&.{ } Y U 6 > y n z y : oXoXoXoXoX",
"oXoXoXoXoXq p N H s h E ] 5.q.4.] 2.X.m 6 > 1 6 e 2 ; 8 3 oXoXoXoX",
"oXoXoXoXoXf O.G J D M z $.e.y.Q Q S b 8 8 9 9 w 7 2 3 8 l 1 oXoXoX",
"oXoXoXoX= d #.j.;.` H 3 w l h z J b d d d b a p g g r r b 1 oXoXoX",
"oXoXoXoXy z c H <.@.| V 7 b J H V D ^ _ O.| <.K < t b p g oXoXoXoX",
"oXoX    t ^ L S f f d p l w G _ O.#.1.g.H.G.j.#.1 S $.X.o   oXoXoX",
"oX    % N <.#./ K Y D [ N Z v z Z E f.+.@.b f 7 2 < @ @     oXoXoX",
"oX  6 ( G.Y.7.a. .^ d G T l G I m M Y Y h n z m - ,         oXoXoX",
"oX  7 g.{.'.[.K.j.) 0 } 5.l.y.*.U F S S z d p 9 9 9 < +     oXoXoX",
"oXo H _.#X}.XX.XK.f v T ) 1 8 b ^ :.,.+.#.<.#.a.) M M y     oXoX  ",
"oX  . d N ' B.x.J p z z z ^ c.Q.G.J.|.K.G.Q.G.K.v.h.Y 5.h     oX  ",
"oX              + 3 U Y F k V v.x.j.K.'.H.{.].].B.1.b.P.U     oX  ",
"oX          % 9 p D G ] I P z g h s h j c ` ].].D.) ! Q , .   oXoX",
"oX        p H N C D -.p.e.*.R S g r p y 4 r ^ ) p t 1 @ o     oXoX",
"oXoX    d H V G K K } e.t.Q M 9 < 9 5 h d l l z s > @       oXoXoX",
"oXoX    a ^ ( ~ H a 9 Q M h t w b N c N N h y t - @         oXoXoX",
"oX        : 3 < = % X # c C T S V H B B V b 7 - o           oXoXoX",
"oXoX                    @ u G ) | | ) K V H ; .             oXoXoX",
"oXoXoXoX                  X $ 8 A s.v.c.1.K -           oXoXoXoXoX",
"oXoXoXoXoXoXoXoXoX              O ; 9 H +.^ o         oXoXoXoXoXoX",
"oXoXoXoXoXoXoXoXoXoX                                oXoXoXoXoXoXoX",
"oXoXoXoXoXoXoXoXoXoXoXoXoXoXoXoXoXoXoX          oXoXoXoXoXoXoXoXoX",
"oXoXoXoXoXoXoXoXoXoXoXoXoXoXoXoXoXoXoXoXoXoXoXoXoXoXoXoXoXoXoXoXoX"
};
