/* XPM */
static char *bcaa7323e37e4fc98229d0010f055656RxLT7KKtLf5nQaZ5[] = {
/* columns rows colors chars-per-pixel */
"16 16 2 1 ",
"  c black",
". c white",
/* pixels */
" .   .   .   .  ",
"... ... ... ... ",
" .   .   .   .  ",
" .   .   .   .  ",
" .   .   .   .  ",
"................",
" .   .   .   .  ",
" .   .   .   .  ",
" .   .   .   .  ",
"................",
"                ",
" ... . . ... ...",
"                ",
".. ... ..  ... .",
"                ",
" ... ... ...  .."
};
