/* XPM */
static char *char[] = {
/* columns rows colors chars-per-pixel */
"32 32 70 1 ",
"  c black",
". c gray5",
"X c #0E0E0E",
"o c gray6",
"O c gray16",
"+ c #2C2C2C",
"@ c #2D2D2D",
"# c gray18",
"$ c #2F2F2F",
"% c gray20",
"& c #343434",
"* c gray21",
"= c #373737",
"- c gray22",
"; c #393939",
": c #3A3A3A",
"> c gray23",
", c #3C3C3C",
"< c gray24",
"1 c #3F3F3F",
"2 c #414141",
"3 c gray32",
"4 c #565656",
"5 c #5B5B5B",
"6 c gray39",
"7 c #646464",
"8 c #676767",
"9 c #6A6A6A",
"0 c gray42",
"q c #6C6C6C",
"w c #6D6D6D",
"e c #8D8D8D",
"r c #909090",
"t c #929292",
"y c gray58",
"u c #979797",
"i c #989898",
"p c gray60",
"a c #9A9A9A",
"s c gray61",
"d c #9D9D9D",
"f c gray62",
"g c gray63",
"h c #BBBBBB",
"j c gray74",
"k c gray",
"l c gray75",
"z c #C0C0C0",
"x c #C1C1C1",
"c c gray76",
"v c #C3C3C3",
"b c gray77",
"n c gray79",
"m c #CACACA",
"M c #CBCBCB",
"N c gray80",
"B c #CDCDCD",
"V c #CECECE",
"C c gray81",
"Z c #D0D0D0",
"A c gray82",
"S c LightGray",
"D c #D5D5D5",
"F c #EEEEEE",
"G c #EFEFEF",
"H c gray94",
"J c #F1F1F1",
"K c gray95",
"L c white",
"P c None",
/* pixels */
"PPPPPP        PPPP        PPPPPP",
"PPPPPP=,,,,$X PPPP X$,,,,-PPPPPP",
"PPPP =ixxxxr$      $rbxxxi= PPPP",
"PPPP ,lLLLLZ9-,22,-9NLLLLl, PPPP",
"PP   ,xLLLLHZxxbxxxZHLLLLx,   PP",
"PP=--qZLLLLLLHZxxZHLLLLLLZq---PP",
" =uxxZHLLLLLLN9%=9NLLLLLLHZxxu= ",
" ,lLLLLFMMFLLZ8$$8ZLLFMMFLLLLl, ",
" ,lLLLLM66MLLFNhlNFLLM68MLLLLl- ",
" ,lLLHZi38MLLLLLLLLLLN63iZHLLl, ",
" -lLLN83iZHLLLLLLLLLLHZi38MLLl, ",
" =uxbi48NLLFMMFLLFMMFLLN84ibxi- ",
"PP---5gDHLLM66MLLM66MLLHDg5---PP",
"PP   ,fDHLLM66MLLM66MLLHDf-   PP",
"PPPPPP=qZLLFMMFLLFMMFLLNq-PPPPPP",
"PPPPPP -iZHLLLLLLLLLLHZi- PPPPPP",
"PP    PP%9NLLLLLLLLLLN9=PP    PP",
"PP-,,-PP -fxlhlllhllbi- PP-,,-PP",
" =uxbi- PP-,-=======,-PP -ixxu- ",
" ,lLLl, PP XO-===-=OX PP ,lLLl, ",
" ,lLLl, PP $exxlllxe$ PP ,lLLl, ",
" =ixbi= PP%9NLLLLLLN9=PP =ubbu= ",
"PP-,,-PP =iZHLLLLLLHZi= PP-,,=PP",
"PP    PP ,lLLLLLLLLLLl, PP    PP",
"PPPPPPPP ,lLLLLLLLLLLl, PPPPPPPP",
"PPPPPPPP =ulllxxxllllu- PPPPPPPP",
"PPPPPPPPPP=-=-,,,,-==%PPPPPPPPPP",
"PPPPPPPPPP=--$X  X$,,=PPPPPPPPPP",
"PPPPPPPP -fMMu%  %rMMi- PPPPPPPP",
"PPPPPPPP $rNMf-  -fMMr$ PPPPPPPP",
"PPPPPPPP X$2,,PPPP-22%X PPPPPPPP",
"PPPPPPPP      PPPP      PPPPPPPP"
};
