/* XPM */
static const char *door_closed[] = {
/* columns rows colors chars-per-pixel */
"32 32 129 2 ",
"   c #0C0D0D",
".  c #141514",
"X  c #191817",
"o  c #1C1B1A",
"O  c #201F1E",
"+  c #21211F",
"@  c #1E2021",
"#  c #242423",
"$  c #292726",
"%  c #2A2827",
"&  c #2C2A28",
"*  c #302F2D",
"=  c #343434",
"-  c #383837",
";  c #3C3C3C",
":  c #41403F",
">  c #3D4041",
",  c #444545",
"<  c #474848",
"1  c #4C4C4C",
"2  c #545453",
"3  c #5B5C5C",
"4  c #5F6162",
"5  c #636363",
"6  c #686766",
"7  c #676768",
"8  c #6B6C6C",
"9  c #71716F",
"0  c #6E6F70",
"q  c #747474",
"w  c #787777",
"e  c #787877",
"r  c #777C7E",
"t  c #7C7C7C",
"y  c #7F807F",
"u  c #7F7F80",
"i  c #7F8080",
"p  c #848483",
"a  c #888685",
"s  c #898887",
"d  c #878888",
"f  c #8C8B8B",
"g  c #908F8F",
"h  c #929292",
"j  c #979798",
"k  c #979898",
"l  c #9A9B9B",
"z  c #989898",
"x  c #9D9D9C",
"c  c #9C9C9C",
"v  c #9EA0A2",
"b  c #A1A1A1",
"n  c #A0A0A0",
"m  c #A3A2A2",
"M  c #A3A4A1",
"N  c #A5A5A3",
"B  c #A2A4A5",
"V  c #A4A5A5",
"C  c #A5A5A5",
"Z  c #A5A5A4",
"A  c #A5A6A4",
"S  c #A5A6A6",
"D  c #A7A7A6",
"F  c #A5A5A5",
"G  c #A6A7A8",
"H  c #A7A7A8",
"J  c #A7A8A9",
"K  c #A8A9A9",
"L  c #A8A9AA",
"P  c #A9AAAA",
"I  c #AAAAAA",
"U  c #AAABAA",
"Y  c #AAAAAB",
"T  c #ABACAB",
"R  c #ABABAC",
"E  c #ABABAB",
"W  c #AFAFB0",
"Q  c #B0B1B1",
"!  c #B3B4B4",
"~  c #B4B5B5",
"^  c #B4B4B4",
"/  c #B7B7B7",
"(  c #B5B5B5",
")  c #B7B7B8",
"_  c #BAB9BA",
"`  c #BABABA",
"'  c #BBBABB",
"]  c #BBBBBB",
"[  c #BCBCBD",
"{  c #BDBDBD",
"}  c #BFBFBF",
"|  c #BAB9B9",
" . c #C0BEBF",
".. c #C0BFBF",
"X. c #BFBFC0",
"o. c #C1C0C0",
"O. c #C2C2C1",
"+. c #C2C2C2",
"@. c #C3C3C3",
"#. c #C5C5C5",
"$. c #C5C5C5",
"%. c #CACACA",
"&. c #D0D0D1",
"*. c #D5D5D5",
"=. c #D5D5D6",
"-. c #D5D5D5",
";. c #D8D9D8",
":. c #D9DAD9",
">. c #DBDBDB",
",. c #DBDDDC",
"<. c #E2E2E3",
"1. c #E0E0E1",
"2. c #E8E7E8",
"3. c #E8E8E9",
"4. c #ECECEC",
"5. c #F3F3F3",
"6. c #F4F5F5",
"7. c #F4F4F4",
"8. c #F4F5F6",
"9. c #F5F6F6",
"0. c #F5F7F7",
"q. c #F6F6F6",
"w. c #F6F6F7",
"e. c #F6F7F7",
"r. c #F3F3F3",
"t. c #F7F7F8",
"y. c #F5F6F8",
"u. c #FCFCFC",
"i. c #FDFDFE",
/* pixels */
"$ % % % & & % % $ % % & % & % % % % % % % % $ % % % % % % % & % ",
"% & & & & & & & & & & & & % % & % % & & & & & & & & & & & & & % ",
"% & & & & & & & & & & & & % % % % & & % & & & & & & & & & & & & ",
"% & & & & & & & & & & & & % & & & & & & & & & & & & & & & & & & ",
"% & & & & & & & & & & & % & $ o X # & % % & & & & & & & & & % & ",
"% & & & & & & & & & & % & O # p D & o & % % & & & & & & & & & & ",
"% % % & & & % & & & % & o ; &.O.R 1.3 o % % & % % & & & & & & & ",
"& & & & & & & # # # & . 8 5.s & @ 5 4.k . & # % & $ & & & & & & ",
"% & & & & & # , h 2 . 0 u.8   8 q . , q.m o - z 5 # & & & % & & ",
"% & & & % & o , Q , - q.8 . 8 f q t # , q.h # B 4 . & & & & % % ",
"& & & & & # : 5 e - z O.. p 8 s q q p @ q #.= 8 5 , # & & & % % ",
"$ & % % & + 2 *.*.' m Y 2 p 9 s q q t 8 h ! D ;.;.p O & & % % % ",
"$ & % % % & # 0 h q x ' t t q s q q q p D ! 3 f p = # & % % % % ",
"% % % % % & $ , 5 < f ' e t q s q q w p M W < q ; & % & & & % % ",
"$ % % & % & O 8 *.d t  .t y q s e q w a D Y 5 3.t # & & & % % % ",
"$ % % & % & o p t.s t O.t y q s q q e p D Y 5 q.Y # & & % % % % ",
"% % % & % & o y q.s t { e t 8 s q q q p m Y 5 q.D # & % % % % % ",
"& & & & % & o p q.f e 3.' X./ #./ ' { { ;.Y 5 q.D # & % % % % % ",
"& & & % % & o p t.f t O.p p q f h q p f Y Y 5 q.G # % & & & % & ",
"% & & % % & o p t.f i X.t p 9 p @.q q a D Y 5 q.J # & % & & & & ",
"& & & & & & o p u.f i ' q e 5 p 5 8 q t x Y 5 u.Y # & & & & & & ",
"& & & & & & o 8 1.q t *.m D z T m x n H #.Y 1 ,.f o & & & & & & ",
"% & & & & $ & q p 7 s *.Y T m Q Y D G T #./ 3 p p < # & % & & & ",
"% & & & & % & h D z , t u q 5 p 8 8 q t z v t J z - # & & & & & ",
"% & & & & # , 5.u.5.> 5 g p q f e e t s h r %.u.u.8 # & & & & & ",
"& & & & & # 3 z g t = , 3 2 < 3 1 1 1 3 ; & t h p e ; $ & & & & ",
"& & & & & & # o o o % # # # # + # # # + # % o X o + % & & & & & ",
"& & & & & & & * * * & & & & & & & & & & & & & & & & & & & & & & ",
"& & & & & & & & & & & & & % % % % & & & & & & & & & & & & & & & ",
"& & & & & & & & & & & & & & & & & & & & & & & & & & & & & & & & ",
"& & & & & & & & & & & & & & & & & & & & & & & & & & & & & & & & ",
"% & & & & & & & & & & & & & & & & & & & & & & & & & & & & & & & "
};
