/* XPM */
static const char *enemy[] = {
/* columns rows colors chars-per-pixel */
"32 32 2 1 ",
"  c black",
". c white",
/* pixels */
"                                ",
"                                ",
"    ..    ...........     ..    ",
"     ...........  .........     ",
"      ......  ............      ",
"       ......       .....       ",
"        .....      .....        ",
"         ....      ....         ",
"           ...    ...           ",
"  ........   .    .   ........  ",
"    .. ...    ....    ... ..    ",
"     .. ..   ......   .. ..     ",
"      .....  ..  ..  .....      ",
"        ................        ",
"             ......             ",
"        ...  ......  ...        ",
"       ....... .. .......       ",
"      ........    ........      ",
"     ........  ..  ........     ",
"    ....       ..       ....    ",
"    .         ....         .    ",
"               ..               ",
"               ..               ",
"               ..               ",
"               ..               ",
"               ..               ",
"               ..               ",
"               ..               ",
"                                ",
"                                ",
"                                ",
"                                "
};
