/* XPM */
static char *gate[] = {
/* columns rows colors chars-per-pixel */
"32 32 113 2 ",
"   c gray9",
".  c #1B1B1B",
"X  c #232323",
"o  c #272727",
"O  c #2A2A2A",
"+  c #2D2D2D",
"@  c #2F2F2F",
"#  c gray19",
"$  c #323232",
"%  c gray20",
"&  c #343434",
"*  c #353535",
"=  c gray21",
"-  c gray22",
";  c #3A3A3A",
":  c #3F3F3F",
">  c gray25",
",  c #464646",
"<  c #484848",
"1  c gray29",
"2  c #4C4C4C",
"3  c gray30",
"4  c #4E4E4E",
"5  c gray31",
"6  c #505050",
"7  c #515151",
"8  c gray34",
"9  c #585858",
"0  c gray37",
"q  c #5F5F5F",
"w  c #606060",
"e  c gray38",
"r  c #626262",
"t  c DimGray",
"y  c #6A6A6A",
"u  c gray42",
"i  c #6C6C6C",
"p  c #6D6D6D",
"a  c gray43",
"s  c #6F6F6F",
"d  c gray44",
"f  c #717171",
"g  c #727272",
"h  c gray45",
"j  c gray46",
"k  c #767676",
"l  c gray47",
"z  c #797979",
"x  c gray48",
"c  c #7B7B7B",
"v  c #7C7C7C",
"b  c gray49",
"n  c #7E7E7E",
"m  c gray50",
"M  c #808080",
"N  c #818181",
"B  c gray51",
"V  c #838383",
"C  c #848484",
"Z  c gray52",
"A  c #868686",
"S  c gray53",
"D  c #888888",
"F  c #898989",
"G  c gray54",
"H  c #8B8B8B",
"J  c gray55",
"K  c #8D8D8D",
"L  c #909090",
"P  c gray57",
"I  c #929292",
"U  c #939393",
"Y  c gray58",
"T  c #959595",
"R  c gray59",
"E  c #979797",
"W  c #989898",
"Q  c #9A9A9A",
"!  c #9B9B9B",
"~  c gray61",
"^  c #9D9D9D",
"/  c gray62",
"(  c #9F9F9F",
")  c #A0A0A0",
"_  c gray63",
"`  c #A4A4A4",
"'  c gray67",
"]  c gray68",
"[  c #AEAEAE",
"{  c #AFAFAF",
"}  c #B2B2B2",
"|  c gray70",
" . c #B4B4B4",
".. c gray74",
"X. c gray76",
"o. c #C5C5C5",
"O. c #C6C6C6",
"+. c #CECECE",
"@. c gray82",
"#. c #D5D5D5",
"$. c gray84",
"%. c #D7D7D7",
"&. c #DADADA",
"*. c gray86",
"=. c gray88",
"-. c #E1E1E1",
";. c #E2E2E2",
":. c gray89",
">. c #E6E6E6",
",. c #E9E9E9",
"<. c gray95",
"1. c white",
"2. c None",
/* pixels */
"2.2.2.2.2.2.2.2.2.2.2.2.2.2.2.2.2.2.2.2.2.2.2.2.2.2.2.2.2.2.2.2.",
"2.2.2.2.2.2.3 j 2.2.2.2.2.2.2.2.2.2.2.2.2.2.2.2.j 3 2.2.2.2.2.2.",
"2.2.2.2.2.2.R *., 2.2.2.2.2.2.2.2.2.2.2.2.2.2., *.R 2.2.2.2.2.2.",
"2.2.2.2.2.2.{ X.n 2.2.2.2.2.2.2.2.2.2.2.2.2.2.n X.{ 2.2.2.2.2.2.",
"2.2.2.2.2.2.! { p 2.2.2.2.2.2.2.2.2.2.2.2.2.2.p { ^ 2.2.2.2.2.2.",
"2.2.2.2.2.2.D ..2.2.2.2.2.2.2.2.2.2.2.2.2.2.2.2...D 2.2.2.2.2.2.",
"2.2.2.2.2.& B ! 9 2.2.2.2.2.y 2.2.y 2.2.2.2.2.9 ! B # 2.2.2.2.2.",
"2.2.2.2.g *.=.=.=. .2.2.2.2.^ r r ^ 2.2.2.2.| =.=.=.*.g 2.2.2.2.",
"2.2.2.2.j *.*.=.=. .2.2.p 2.y 2.2.p 2.p 2.2. .=.=.=.*.g 2.2.2.2.",
"2.2.2.2.2.r _ _ K & 2.2.^ 6 y 6 6 y 6 ^ 2.2.& K _ _ r 2.2.2.2.2.",
"2.2.2.2.2.n _ ! ` ; 2.2.g 0 _ n n _ 0 g 2.2.: _ ! _ n 2.2.2.2.2.",
"2.2.2.g z p I O.z & ^ 9 j y j # # j y j 9 ^ & z O.K p n g 2.2.2.",
"2.2.n >.#.z _ =.n # B 1 I & C n n C & I 3 n # n =._ z #.>.B 2.2.",
"2.# #.+.B n _ =.n # j g C n ! 3 3 ! n C g j + n >._ n B +.#.+ 2.",
"1 z O.B R z _ >.n g n : n : y 2.2.y > n : B g n =._ n I B O.z 1 ",
"C ' I I n n _ =.n I I 0 R + p 2.2.p + R 0 I K B =._ n n K I { C ",
"n { ! { n n _ =.D | | r y # p 2.2.p # y r | | D =._ n n { R | n ",
"p y I p n n _ =.n n n + p # p 2.2.p # p + n n z >._ n n y I y y ",
"p p D g B n _ >.z B B + g + p 2.2.p # p + B n n =._ n B g D g y ",
"y ^ #.z n n _ =.z n B + p # p 2.2.p # p + B n z >.^ n n n #.^ y ",
"y ^ >.z n n ^ >.n n B + g + p 2.2.p # p + B n n =._ n n n >._ y ",
"y _ =.n B z _ =.n n n + p # p 2.2.p # p + B n n >.^ n n z =._ y ",
"y _ >.n B n ^ >.z B B + g + p 2.2.p # p + B n z =._ n n n >.^ y ",
"y ^ >.z n n _ =.n n n + p # p 2.2.p # g + n n n =._ n B z =._ y ",
"y _ >.z B n ^ >.z B n + p # p 2.2.p # p + n B z >._ n n z >.^ y ",
"y ^ =.n n n _ =.n n B O p + p & ; p + p O B n n =._ n B n =._ y ",
"y _ =.z n n _ =.D | | j _ z _ n n ^ z ^ z | | D =.^ n n z >._ y ",
"y _ >.n B n _ =.n I I , n , z 6 3 n , n , I K B >._ n n n =._ y ",
"y ^ =.n n n ^ >.n n n + p # p 2.2.p # p + B n z >.^ n n n =._ y ",
"g z K z n K @.<.{ n B + p # p 2.2.p # p + B n { <.@.K B z K z g ",
"K ,.=.*.C ^ 1.1.*.g g o r O r 2.2.r + r o p g =.1.1.^ C #.=.,.D ",
"3 I I K g 8 I K n X . 2.2.2.  2.2.  2.2.2.. X n I K 8 g K I R 6 "
};
