/* XPM */
static const char *gate_closed[] = {
/* columns rows colors chars-per-pixel */
"32 32 97 2 ",
"   c #0C0C0C",
".  c #171717",
"X  c #2A2A2A",
"o  c #3F3F3F",
"O  c #424242",
"+  c #454545",
"@  c #484848",
"#  c #4D4D4D",
"$  c #505050",
"%  c #515151",
"&  c #545454",
"*  c #565656",
"=  c #575757",
"-  c #595959",
";  c #5B5B5B",
":  c #5C5C5C",
">  c #5D5D5D",
",  c #5E5E5E",
"<  c #5F5F5F",
"1  c #616161",
"2  c #636363",
"3  c #6D6D6D",
"4  c #707070",
"5  c #727272",
"6  c #737373",
"7  c #747474",
"8  c #767676",
"9  c #777777",
"0  c #7A7A7A",
"q  c #7B7B7B",
"w  c #7D7D7D",
"e  c #7E7E7E",
"r  c #808080",
"t  c #818181",
"y  c #838383",
"u  c #848484",
"i  c #888888",
"p  c #898989",
"a  c #8A8A8A",
"s  c #8B8B8B",
"d  c #8C8C8C",
"f  c #8D8D8D",
"g  c #8E8E8E",
"h  c #8F8F8F",
"j  c #909090",
"k  c #919191",
"l  c #929292",
"z  c #939393",
"x  c #979797",
"c  c #989898",
"v  c #999999",
"b  c #9B9B9B",
"n  c #9C9C9C",
"m  c #9D9D9D",
"M  c #9E9E9E",
"N  c #9F9F9F",
"B  c #A0A0A0",
"V  c #A1A1A1",
"C  c #A3A3A3",
"Z  c #A4A4A4",
"A  c #A5A5A5",
"S  c #A9A9A9",
"D  c #AAAAAA",
"F  c #ABABAB",
"G  c #B9B9B9",
"H  c #BABABA",
"J  c #BBBBBB",
"K  c #BCBCBC",
"L  c #BFBFBF",
"P  c #C1C1C1",
"I  c #C6C6C6",
"U  c #D2D2D2",
"Y  c #D5D5D5",
"T  c #D6D6D6",
"R  c #D9D9D9",
"E  c #DADADA",
"W  c #DBDBDB",
"Q  c #DEDEDE",
"!  c #DFDFDF",
"~  c #E0E0E0",
"^  c #E1E1E1",
"/  c #E2E2E2",
"(  c #E3E3E3",
")  c #E6E6E6",
"_  c #E9E9E9",
"`  c #EAEAEA",
"'  c #EBEBEB",
"]  c #F1F1F1",
"[  c #F2F2F2",
"{  c #F3F3F3",
"}  c #F4F4F4",
"|  c #F5F5F5",
" . c #F9F9F9",
".. c #FCFCFC",
"X. c #FDFDFD",
"o. c white",
"O. c None",
/* pixels */
"O.O.O.O.O.O.O.O.O.O.O.O.O.O.O.O.O.O.O.O.O.O.O.O.O.O.O.O.O.O.O.O.",
"O.O.O.O.9 # O.O.O.O.O.O.O.O.O.O.O.O.O.O.O.O.O.O.O.O.# 9 O.O.O.O.",
"O.O.O.r _ L @ O.O.O.O.O.O.O.O.O.O.O.O.O.O.O.O.O.O.@ L _ r O.O.O.",
"O.O.5 k M x f O.O.O.O.O.O.O.O.O.O.O.O.O.O.O.O.O.O.f x M k 5 O.O.",
"O.O.; w Y Z 5 O.O.O.O.O.O.O.O.O.O.O.O.O.O.O.O.O.O.5 Z Y w ; O.O.",
"O.O.O.9 Z f , O.O.O.O.O.O.O.O.O.O.O.O.O.O.O.O.O.O., f Z 9 O.O.O.",
"O.O.O., 0 5 O.O.O.O.O.O.O.O.O.O.O.O.O.O.O.O.O.O.O.O.5 0 , O.O.O.",
"O.O.O.O L u O.O.O.O.O.O.O.O.O.O.O.O.O.O.O.O.O.O.O.O.u L O O.O.O.",
"$ k b R o.{ G f k $ O.O.O.1 k ; ; k 1 O.O.O.$ k i D { o.R b k $ ",
"f o.o.o.o.o.{ R o.f O.O.& k o.0 0 o.f $ O.O.f o.{ R o.o.o.o.o.f ",
"w ( Q Q Q Q R U ( w O.r I M o.0 0 o.M I r O.w ( Q Q Q Q Q Q ( w ",
". 1 M M M M M M 1 O.X R ( b o.0 0 o.b ( R X O.1 M M M M M M 1 . ",
"O.k } ( ( ( ( } k O.& ( ( b o.0 0 o.b ( ( & O.k } ( ( ( ( } k O.",
"O.k M i M M i B i , f ( ( b o.0 0 o.b ( ( f , i M i M M i M k O.",
"O.k B U R o.Q B r i B ( ( b o.0 0 o.b ( ( B i r B Q o.o.Q M k O.",
"O.k M R } o.Q M b Y M ( ( b o.0 0 o.b ( ( M Y b M Q o.o.Q M k O.",
"O.k M Q o.o.Q M M ( M ( ( b o.0 0 o.b ( ( M ( M M Q o.o.Q M k O.",
"O.k M Q o.o.Q M M ( M ( ( b o.0 0 o.b ( ( M ( M M Q o.o.Q M k O.",
"O.k M Q o.o.Q M M G k ( ( b o.0 0 o.b ( ( k G M M Q o.} Q M k O.",
"O.k M Q o.o.Q M B i f ( ( f B 3 3 B f ( ( f i M M Q } R ( M k O.",
"O.k M Q o.o.Q M P Y b ( ( w o , , o w ( ( b Y P M Q o.o.Q M k O.",
"O.k M Q o.o.Q M M Y b ( ( f B 3 3 B f ( ( b Y M M Q o.o.Q M k O.",
"O.k M Q o.o.Q M M B f ( ( b o.0 0 o.b ( ( f B M M Q o.o.Q M k O.",
"O.k M Q o.o.Q M G B k ( ( b o.0 0 o.b ( ( k B G M Q o.o.Q M k O.",
"O.k M Q o.o.Q M D ) M ( ( b o.0 0 o.b ( ( M ) D M Q o.o.Q M k O.",
"O.k M Q o.o.Q M M ( M ( ( b o.0 0 o.b ( ( M ( M M Q o.o.Q M k O.",
"O.k M Q o.o.Q M M ( M ( ( b o.0 0 o.b ( ( M ( M M Q } o.Q M k O.",
"O.k D ( o.o.( D M ( M ( ( b o.0 0 o.b ( ( M ( M D ( R } ( D k O.",
"  i  .o.o.o.o. .k 0 & w w & x + + k & w w & 0 k  .o.o.o. . .i   ",
"1 9 M M b b M M 9 1 O.O.O.O.O.O.O.O.O.O.O.O.1 9 M b b b b M 9 1 ",
"f _ ( ( ( ( G Y _ f O.O.O.O.O.O.O.O.O.O.O.O.f _ ( ( ( ( ( ( _ f ",
"$ k k k k k r f k $ O.O.O.O.O.O.O.O.O.O.O.O.$ k k k k k k k k $ "
};
