/* XPM */
static const char *gate_open[] = {
/* columns rows colors chars-per-pixel */
"32 32 105 2 ",
"   c black",
".  c #0C0C0C",
"X  c #171717",
"o  c #191919",
"O  c #1B1B1B",
"+  c #292929",
"@  c #3B3B3B",
"#  c #3E3E3E",
"$  c #3F3F3F",
"%  c #414141",
"&  c #424242",
"*  c #484848",
"=  c #494949",
"-  c #4A4A4A",
";  c #4B4B4B",
":  c #4D4D4D",
">  c #4E4E4E",
",  c #505050",
"<  c #515151",
"1  c #575757",
"2  c #5A5A5A",
"3  c #5B5B5B",
"4  c #5C5C5C",
"5  c #5D5D5D",
"6  c #5E5E5E",
"7  c #5F5F5F",
"8  c #616161",
"9  c #636363",
"0  c #6A6A6A",
"q  c #707070",
"w  c #727272",
"e  c #737373",
"r  c #747474",
"t  c #767676",
"y  c #777777",
"u  c #7A7A7A",
"i  c #7D7D7D",
"p  c #7E7E7E",
"a  c #7F7F7F",
"s  c #808080",
"d  c #818181",
"f  c #838383",
"g  c #848484",
"h  c #898989",
"j  c #8A8A8A",
"k  c #8C8C8C",
"l  c #8D8D8D",
"z  c #8E8E8E",
"x  c #8F8F8F",
"c  c #909090",
"v  c #919191",
"b  c #929292",
"n  c #939393",
"m  c #959595",
"M  c #979797",
"N  c #989898",
"B  c #9B9B9B",
"V  c #9C9C9C",
"C  c #9D9D9D",
"Z  c #9E9E9E",
"A  c #9F9F9F",
"S  c #A0A0A0",
"D  c #A1A1A1",
"F  c #A4A4A4",
"G  c #A5A5A5",
"H  c #A9A9A9",
"J  c #AAAAAA",
"K  c #ABABAB",
"L  c #AEAEAE",
"P  c #B9B9B9",
"I  c #BBBBBB",
"U  c #BCBCBC",
"Y  c #BFBFBF",
"T  c #C1C1C1",
"R  c #C2C2C2",
"E  c #C3C3C3",
"W  c #C4C4C4",
"Q  c #C5C5C5",
"!  c #D1D1D1",
"~  c #D2D2D2",
"^  c #D5D5D5",
"/  c #DADADA",
"(  c #DBDBDB",
")  c #DEDEDE",
"_  c #DFDFDF",
"`  c #E0E0E0",
"'  c #E1E1E1",
"]  c #E2E2E2",
"[  c #E3E3E3",
"{  c #E4E4E4",
"}  c #E5E5E5",
"|  c #E9E9E9",
" . c #EAEAEA",
".. c #EBEBEB",
"X. c #F1F1F1",
"o. c #F2F2F2",
"O. c #F3F3F3",
"+. c #F4F4F4",
"@. c #F5F5F5",
"#. c #F7F7F7",
"$. c #F9F9F9",
"%. c #FCFCFC",
"&. c #FDFDFD",
"*. c white",
"=. c None",
/* pixels */
"=.=.=.=.=.=.=.=.=.=.=.=.=.=.=.=.=.=.=.=.=.=.=.=.=.=.=.=.=.=.=.=.",
"=.=.=.=.y : =.=.=.=.=.=.=.=.=.=.=.=.=.=.=.=.=.=.=.=.: y =.=.=.=.",
"=.=.=.s | Y * =.=.=.=.=.=.=.=.=.=.=.=.=.=.=.=.=.=.* Y | s =.=.=.",
"=.=.w v Z M l =.=.=.=.=.=.=.=.=.=.=.=.=.=.=.=.=.=.l M Z v w =.=.",
"=.=.3 i ^ F w =.=.=.=.=.=.=.=.=.=.=.=.=.=.=.=.=.=.w F ^ i 3 =.=.",
"=.=.=.y F l 6 =.=.=.=.=.=.=.=.=.=.=.=.=.=.=.=.=.=.6 l F y =.=.=.",
"=.=.=.6 u w =.=.=.=.=.=.=.=.=.=.=.=.=.=.=.=.=.=.=.=.w u 6 =.=.=.",
"=.=.=.& Y g =.=.=.=.=.=.=.=.=.=.=.=.=.=.=.=.=.=.=.=.g Y & =.=.=.",
", v N ( *.O.P l v * $ =.=.=.=.=.=.=.=.=.=.$ * v h J O.*.( N v , ",
"l *.*.*.*.*.O.( *.i 6 =.=.=.=.=.=.=.=.=.& 6 i *.O.( *.*.*.*.*.l ",
"i ' ) ) ) ) ( ! } i l =.=.=.=.=.=.=.=.=.$ l i } ) ) ) ) ) ) ' i ",
"X 8 Z Z Z Z Z Z 3 + E =.=.=.=.=.=.=.=.=.@ E + 3 Z Z Z Z Z Z 8 X ",
"=.v +.' ' ' ' +.i o W =.=.=.=.=.=.=.=.=.@ W o i +.' ' ' ' +.v =.",
"=.v Z h Z Z h Z v * E =.=.=.=.=.=.=.=.=.@ E * v Z h Z Z h Z v =.",
"=.v D ! ( *.) Z D i E =.=.=.=.=.=.=.=.=.@ E i D Z ) *.*.) Z v =.",
"=.v Z ( +.*.) Z D i E =.=.=.=.=.=.=.=.=.@ E i D Z ) *.*.) Z v =.",
"=.v Z ) *.*.) Z D i E =.=.=.=.=.=.=.=.=.@ E i D Z ) *.*.) Z v =.",
"=.v Z ) *.*.) Z D i E =.=.=.=.=.=.=.=.=.@ E i D Z ) *.*.) Z v =.",
"=.v Z ) *.*.) Z M 1 E =.=.=.=.=.=.=.=.=.@ E 1 M Z ) *.+.) Z v =.",
"=.v Z ) *.*.) Z Z : v =.=.=.=.=.=.=.=.=.o v : Z Z ) +.( ' Z v =.",
"=.v Z ) *.*.) Z W s 6 =.=.=.=.=.=.=.=.=.  6 s W Z ) *.*.) Z v =.",
"=.v Z ) *.*.) Z Z w v =.=.=.=.=.=.=.=.=.o v w Z Z ) *.*.) Z v =.",
"=.v Z ) *.*.) Z v * E =.=.=.=.=.=.=.=.=.@ E * v D ) *.*.) Z v =.",
"=.v Z ) *.*.) Z Y 8 E =.=.=.=.=.=.=.=.=.@ E 9 Y Z ) *.*.) Z v =.",
"=.v Z ) *.*.) Z L s E =.=.=.=.=.=.=.=.=.@ E s L Z ) *.*.) Z v =.",
"=.v Z ) *.*.) Z D i E =.=.=.=.=.=.=.=.=.@ E i D Z ) *.*.) Z v =.",
"=.v Z ) *.*.) Z D i E =.=.=.=.=.=.=.=.=.@ E i D Z ) +.*.) Z v =.",
"=.v J ' *.*.' J D i E =.=.=.=.=.=.=.=.=.@ E i D J ' ( +.' J v =.",
". h $.*.*.*.*.$.v * 0 =.=.=.=.=.=.=.=.=.=.0 * v $.*.*.*.*.$.h . ",
"8 y Z Z N N Z Z y 8 =.=.=.=.=.=.=.=.=.=.=.=.8 y Z N N N N Z y 8 ",
"l | ' ' ' ' P ^ | l =.=.=.=.=.=.=.=.=.=.=.=.l | ' ' ' ' ' ' | l ",
", v v v v v s l v , =.=.=.=.=.=.=.=.=.=.=.=., v v v v v v v v , "
};
