/* XPM */
static char *moves_UI[] = {
/* columns rows colors chars-per-pixel */
"128 64 48 1 ",
"  c black",
". c #040404",
"X c #0B0B0B",
"o c #0C0C0C",
"O c #101010",
"+ c #222222",
"@ c #252525",
"# c gray17",
"$ c #2D2D2D",
"% c #323232",
"& c gray21",
"* c #3A3A3A",
"= c #3C3C3C",
"- c #434343",
"; c #535353",
": c gray34",
"> c #5B5B5B",
", c #5F5F5F",
"< c #606060",
"1 c #676767",
"2 c gray42",
"3 c #6C6C6C",
"4 c #727272",
"5 c #8B8B8B",
"6 c #8E8E8E",
"7 c gray57",
"8 c gray59",
"9 c #989898",
"0 c #9F9F9F",
"q c #A0A0A0",
"w c #A5A5A5",
"e c gray66",
"r c #ACACAC",
"t c #BBBBBB",
"y c gray75",
"u c #C1C1C1",
"i c #C6C6C6",
"p c #CBCBCB",
"a c gray81",
"s c gray82",
"d c #D5D5D5",
"f c gray85",
"g c #EFEFEF",
"h c #F1F1F1",
"j c #F6F6F6",
"k c #F8F8F8",
"l c white",
"z c None",
/* pixels */
"zzzzzzzzzzzzzz              zzzzzzzzzzzzzzzzzzzzzzzzzzzzzzzzzzzzzzzzzzzzzzzzzzzzzzzzzzzzzzzzzzzzzzzzzzzzzzzzzzzzzzzzzzzzzzzzzzzz",
"zzzzzzzzzzzzzz&======*=====*zzzzzzzzzzzzzzzzzzzzzzzzzzzzzzzzzzzzzzzzzzzzzzzzzzzzzzzzzzzzzzzzzzzzzzzzzzzzzzzzzzzzzzzzzzzzzzzzzzzz",
"zzzzzzzzzz   *9uuyyyyyyyyuu9*   zzzzzzzzzzzzzzzzzzzzzzzzzzzzzzzzzzzzzzzzzzzzzzzzzzzzzzzzzzzzzzzzzzzzzzzzzzzzzzzzzzzzzzzzzzzzzzzz",
"zzzzzzzzzz***2slllllllllllls2&**zzzzzzzzzzzzzzzzzzzzzzzzzzzzzzzzzzzzzzzzzzzzzzzzzzzzzzzzzzzzzzzzzzzzzzzzzzzzzzzzzzzzzzzzzzzzzzzz",
"zzzzzzzz &9uyagllllllllllllgayu8* zzzzzzzzzzzzzzzzzzzzzzzzzzzzzzzzzzzzzzzzzzzzzzzzzzzzzzzzzzzzzzzzzzzzzzzzzzzzzzzzzzzzzzzzzzzzzz",
"zzzzzzzz%2alllllllllllllllllllly= zzzzzzzzzzzzzzzzzzzzzzzzzzzzzzzzzzzzzzzzzzzzzzzzzzzzzzzzzzzzzzzzzzzzzzzzzzzzzzzzzzzzzzzzzzzzzz",
"zzzzzz &8shlllllllllllllllllllly= zzzzzzzzzzzzzzzzzzzzzzzzzzzzzzzzzzzzzzzzzzzzzzzzzzzzzzzzzzzzzzzzzzzzzzzzzzzzzzzzzzzzzzzzzzzzzz",
"zzzzzz%2alllllllllllllllllllllla3%zzzzzzzzzzzzzzzzzzzzzzzzzzzzzzzzzzzzzzzzzzzzzzzzzzzzzzzzzzzzzzzzzzzzzzzzzzzzzzzzzzzzzzzzzzzzzz",
"zzzz &8shllllllllllllllllllllllhd9& zzzzzzzzzzzzzzzzzzzzzzzzzzzzzzzzzzzzzzzzzzzzzzzzzzzzzzzzzzzzzzzzzzzzzzzzzzzzzzzzzzzzzzzzzzzz",
"zzzz%2alllllllllllllllllllllllllls3&zzzzzzzzzzzzzzzzzzzzzzzzzzzzzzzzzzzzzzzzzzzzzzzzzzzzzzzzzzzzzzzzzzzzzzzzzzzzzzzzzzzzzzzzzzzz",
"zz &8shllllllllllllllllllllllllllhd9& zzzzzzzzzzzzzzzzzzzzzzzzzzzzzzzzzzzzzzzzzzzzzzzzzzzzzzzzzzzzzzzzzzzzzzzzzzzzzzzzzzzzzzzzzz",
"zz%2allllllllllllllllllllllhsyyshjf0* zzzzzzzzzzzzzzzzzzzzzzzzzzzzzzzzzzzzzzzzzzzzzzzzzzzzzzzzzzzzzzzzzzzzzzzzzzzzzzzzzzzzzzzzzz",
" &8shlllllllllllllllllllllls3&&3dd4*zzzzzzzzzzzzzzzzzzzzzzzzzzzzzzzzzzzzzzzzzzzzzzzzzzzzzzzzzzzzzzzzzzzzzzzzzzzzzzzzzzzzzzzzzzzz",
" =yllllllllllllllllllllllhd7$  -ii= zzzzzzzzzzzzzzzzzzzzzzzzzzzzzzzzzzzzzzzzzzzzzzzzzzzzzzzzzzzzzzzzzzzzzzzzzzzzzzzzzzzzzzzzzzzz",
" =ylllllllllllllllllllllls3#o  -ii= zzzzzzzzzzzzzzzzzzzzzzzzzzzzzzzzzzzzzzzzzzzzzzzzzzzzzzzzzzzzzzzzzzzzzzzzzzzzzzzzzzzzzzzzzzzz",
" =yllllllllllllllllllllhs6$    -id4&zzzzzzzzzzzzzzzzzzzzzzzzzzzzzzzzzzzzzzzzzzzzzzzzzzzzzzzzzzzzzzzzzzzzzzzzzzzzzzzzzzzzzzzzzzzz",
" =ylllllllllllllllllllla2@X    =ukf9& zzzzzzzzzzzzzzzzzzzzzzzzzzzzzzzzzzzzzzzzzzzzzzzzzzzzzzzzzzzzzzzzzzzzzzzzzzzzzzzzzzzzzzzzzz",
" =yllllllgaaglllllllllla3@X    =ulla2%zzzzzzzzzzzzzzzzzzzzzzzzzzzzzzzzzzzzzzzzzzzzzzzzzzzzzzzzzzzzzzzzzzzzzzzzzzzzzzzzzzzzzzzzzz",
" =yllllllp<<pllllllllllhd8$    =ullhs8& zzzzzzzzzzzzzzzzzzzzzzzzzzzzzzzzzzzzzzzzzzzzzzzzzzzzzzzzzzzzzzzzzzzzzzzzzzzzzzzzzzzzzzzz",
" =ylllllla1;9uyyyyyyyyyuiw,$o  -ulllly= zzzzzzzzzzzzzzzzzzzzzzzzzzzzzzzzzzzzzzzzzzzzzzzzzzzzzzzzzzzzzzzzzzzzzzzzzzzzzzzzzzzzzzzz",
" =yllllllga9:&&*&&*&*&*&&<w8%  =ulllly= zzzzzzzzzzzzzzzzzzzzzzzzzzzzzzzzzzzzzzzzzzzzzzzzzzzzzzzzzzzzzzzzzzzzzzzzzzzzzzzzzzzzzzzz",
" =ylllllllls1%%&&**==***&3ds3*&3sllhs9* zzzzzzzzzzzzzzzzzzzzzzzzzzzzzzzzzzzzzzzzzzzzzzzzzzzzzzzzzzzzzzzzzzzzzzzzzzzzzzzzzzzzzzzz",
" =yllllllllgatyyyyuuiuiuudhhsyusglla3&zzzzzzzzzzzzzzzzzzzzzzzzzzzzzzzzzzzzzzzzzzzzzzzzzzzzzzzzzzzzzzzzzzzzzzzzzzzzzzzzzzzzzzzzzz",
" &8shllllllllllllhdiiiiuiuyagllllhs6$ zzzzzzzzzzzzzzzzzzzzzzzzzzzzzzzzzzzzzzzzzzzzzzzzzzzzzzzzzzzzzzzzzzzzzzzzzzzzzzzzzzzzzzzzzz",
"zz%2alllllllllllls3==-=***&1alllla2@X                                                                                           ",
"zz &8shllllllllllu-  O$==&&2slllls2&=--=-=-=-=-==--=-==--=-==-=--==--=-=-==--=-=-==--=-=-==--=-==--=-==--=-==-=--=-=-=-==--==$o ",
"zzzz%2allllllllllu=  $8iiuushllllhsiiiiiiiiiiuiiiiuiiuiiiiuiiuiuiuiiiiuiuiiiiiuiuiiiiiuiuiiiiiuiiiuiiuiiiiuiiuiuiiiiiuiiiiiii7$ ",
"zzzz &8shllllllhsq,@X%8appiiuuuuuuiiiipiiiiiipiipipiipiiiipiipipipiiiipiiipiiipiiipiiipiiipiiipipipiipiiiipiipipiiiiipiiiiifju= ",
"zzzzzz%2alllllla2,q8$X$-----==-===---------=-------------------------=-------=-------=-------=---------------------=-----==4fu= ",
"zzzzzz &8shllhs5@=up-                                                                                                      -ii- ",
"zzzzzzzz%2alla2+.=ip-                                                                                                      -ii- ",
"zzzzzzzz &8djs2+.-ii-                                                                                                      -iu- ",
"zzzzzzzzzz$2akd5@=ip-                                                                                                      -ii= ",
"zzzzzzzzzz&>9sjs2>q7$                                                                                                      -ii- ",
"zzzzzzzz =qq:1ajd0>#o                                                                                                      -pu= ",
"zzzzzzzz&<ew>:9djs1@X                                                                                                      -ii- ",
"zzzzzz *qq,>wq>1sjd6$                                                                                                      -ii- ",
"zzzzzz *qw>>qw>:9djs3**=====--=-=-=-------------=---------=-----------------=-------------------------------------=-------=<w9* ",
"zzzzzzzz*<qq>>qq:<ajduyuuuuuiiuuiiiuiiiiiiiiipiiipiiiipiiiipiipiipiipipiipiiippiipiipiipiiiipipiiipiipiiiiiiiipiipipiiiiippw,&zz",
"zzzzzzzz -us2,we,:0shllllllhsshhsshhdiuiuiiuiuiuiuiiuiuiuiiuiuuiiuiuuiuuiuiuiuuiiuiuuiuuiiuiiiiiipiiiuiuiuiiuiuiiiiiiiiiiii0& zz",
"zzzzzzzz =yjfq,,ww>2alllllla12ss22sd4***=**=**===*===*=*==*=*===***===*==*===*=****===*==*==-------==*=*=*=****==---=-=-=--*zzzz",
"zzzzzzzz*,0ip7#$89$#6iuyydha12ss2>q8$X#*=======***=**=****====**=*==*==***=**=**=*==*==*===$o      o#**&*&&**&*#o           zzzz",
"zzzzzz *qe,&*$oo$$oo$==&&3sjsshhdq<#X$8piiuuuiiuuiiuiuiiiuiuiuiuiiuuuiiuuiiuiuiiiiuuuiiuuip8%      $6uyyyyyyyuu7%   zzzzzzzzzzzz",
"zzzzzz *0w,**==-==-%oo##X$7ipiuip8$.#<wppipiiiipipiiipiiipiiipiiiipipiipipiiipiiiipipiipippw,#o  o$3slllllllllls3#o zzzzzzzzzzzz",
"zzzzzzzz%,qiiiiiiip8$#77$X$---=--$o%8w1==------------------=-----------=---------------=-=-<w8%  $7djllllllllllhd6$ zzzzzzzzzzzz",
"zzzzzzzz%,wpiiiuiii7#=ip-          -ii-                                                    -ii-  =ulllllllllllllly= zzzzzzzzzzzz",
"zzzzzz *0e<=*=**===#.-ii-          -ip-                                                    =pi-  =ulllllllllllllly= zzzzzzzzzzzz",
"zzzzzz =w9%X#====**==<w8%  O$%Oo$$X=ii-                                                    -pi-  -ujsuysgllgayydju= zzzzzzzzzzzz",
"zzzzzzzz-$o$7piuiuuipw<$o  %98$$88#=ii-                                                    -pi-  =id4&*3slls3&&3du= zzzzzzzzzzzz",
"zzzzzzzz o$1wppiiiiip7$X$#X=ii=*iu==up-                                                    -ii-  -pi-  =ullu=  -pi- zzzzzzzzzzzz",
"zzzzzzzz %9r1=--**===#X%88$=ii*=ui**ii-                                                    -ip-  -ip=  =ullu=  -ii= zzzzzzzzzzzz",
"zzzzzzzz =q9%  o$===***4fu**uu=*iu*=ui-                                                    -ii-  -if3*&,0uu0,*&4du- zzzzzzzzzzzz",
"zzzzzzzzzz=%O  $7piuiuifjy*=iu=*iu**ip-                                                    -ip-  =ijduuq>%%>0iusju= zzzzzzzzzzzz",
"zzzzzzzzzz   o%1eppiiuiii6@=ii*=ui=#7w<==---------------=---------=-------------=--------==1w8%  =ulllla1$$2alllly= zzzzzzzzzzzz",
"zzzzzzzzzzzz %9r1=--==***@.-iu*=ii=X#<eappiiiipiiiiiipiiipiiiipiiiipiipiiiiiipiiipiiiipipppw<$o  =ullllgattaglllly= zzzzzzzzzzzz",
"zzzzzzzzzzzz =q9%  o$==***=4fu*=ii-  $8iiuiiuiuiuiiuiuiuiuiiuiuiuiiuiuuiuiiuiuiuiuiiuiuiuip7$    $7dhllllllllllhd9& zzzzzzzzzzzz",
"zzzzzzzzzzzzzz=%O  %7piuiiidju*=ui-  o$===*=*==*=*====**==*=*=**=**=*==*=*=*===*=*==*==**==$o    o#3slllllllllla2&zzzzzzzzzzzzzz",
"zzzzzzzzzzzzzz   o$<wpiiuiiii7@=ii=X$-====*===*=*==**===*=*=====*==*=*=**=*==**=*==**==*====-%O    =ijsagllgasju= zzzzzzzzzzzzzz",
"zzzzzzzzzzzzzzzz %9r1*=-=--==$X-ii=$8piiuuiuuuuiuiiuiuuiuuiuuuuiiuuiiuuiiiuuuuiuiuuiiiuuiuiia8%    -is22alla22si= zzzzzzzzzzzzzz",
"zzzzzzzzzzzzzzzz =qw=        o$1w7##7piiiiiiiiiiiuiiuiiiiiiiiiiiiiiuiiiuiuiiiiiiuiiuiuiiiiuip8%    %87##6ii6##77% zzzzzzzzzzzzzz",
"zzzzzzzzzzzzzzzzzz==zzzzzzzz %9r<#oo%--=-=-=-=-=-=-=-=-=-=-=-=-==-=--=--=-=---=--=--=-=-=-=--%O    O$$oo$-=$oo$%o zzzzzzzzzzzzzz",
"zzzzzzzzzzzzzzzzzz  zzzzzzzz =qq=                                                                                 zzzzzzzzzzzzzz",
"zzzzzzzzzzzzzzzzzzzzzzzzzzzzzz==zzzzzzzzzzzzzzzzzzzzzzzzzzzzzzzzzzzzzzzzzzzzzzzzzzzzzzzzzzzzzzzzzzzzzzzzzzzzzzzzzzzzzzzzzzzzzzzz",
"zzzzzzzzzzzzzzzzzzzzzzzzzzzzzz  zzzzzzzzzzzzzzzzzzzzzzzzzzzzzzzzzzzzzzzzzzzzzzzzzzzzzzzzzzzzzzzzzzzzzzzzzzzzzzzzzzzzzzzzzzzzzzzz"
};
