/* XPM */
static char *pl_dn1[] = {
/* columns rows colors chars-per-pixel */
"32 32 94 2 ",
"   c black",
".  c #070707",
"X  c #0A0A0A",
"o  c #0D0D0D",
"O  c #0E0E0E",
"+  c #0F0F0F",
"@  c #262626",
"#  c #2A2A2A",
"$  c #2C2C2C",
"%  c #2D2D2D",
"&  c #2E2E2E",
"*  c #2F2F2F",
"=  c #303030",
"-  c #323232",
";  c #333333",
":  c #343434",
">  c #363636",
",  c #373737",
"<  c #383838",
"1  c #393939",
"2  c #3A3A3A",
"3  c #3B3B3B",
"4  c #3C3C3C",
"5  c #3D3D3D",
"6  c #3E3E3E",
"7  c #3F3F3F",
"8  c #404040",
"9  c #414141",
"0  c #424242",
"q  c #525252",
"w  c #565656",
"e  c #575757",
"r  c #5C5C5C",
"t  c #5D5D5D",
"y  c #636363",
"u  c #656565",
"i  c #676767",
"p  c #686868",
"a  c #6B6B6B",
"s  c #6C6C6C",
"d  c #6D6D6D",
"f  c #717171",
"g  c #8E8E8E",
"h  c #8F8F8F",
"j  c #909090",
"k  c #919191",
"l  c #929292",
"z  c #939393",
"x  c #949494",
"c  c #969696",
"v  c #989898",
"b  c #999999",
"n  c #9A9A9A",
"m  c #9B9B9B",
"M  c #9C9C9C",
"N  c #9D9D9D",
"B  c #9E9E9E",
"V  c #9F9F9F",
"C  c #A2A2A2",
"Z  c #BBBBBB",
"A  c #BEBEBE",
"S  c #BFBFBF",
"D  c #C0C0C0",
"F  c #C1C1C1",
"G  c #C2C2C2",
"H  c #C3C3C3",
"J  c #C4C4C4",
"K  c #C5C5C5",
"L  c #C6C6C6",
"P  c #C7C7C7",
"I  c #C8C8C8",
"U  c #CACACA",
"Y  c #CBCBCB",
"T  c #CCCCCC",
"R  c #CDCDCD",
"E  c #CECECE",
"W  c #CFCFCF",
"Q  c #D0D0D0",
"!  c #D1D1D1",
"~  c #D2D2D2",
"^  c #D3D3D3",
"/  c #D4D4D4",
"(  c #D5D5D5",
")  c #D6D6D6",
"_  c #DADADA",
"`  c #EEEEEE",
"'  c #EFEFEF",
"]  c #F0F0F0",
"[  c #F1F1F1",
"{  c #F2F2F2",
"}  c #F3F3F3",
"|  c #F5F5F5",
" . c white",
".. c None",
/* pixels */
"............                ........                ............",
"............< 4 4 4 4 & O   ........  O & 4 4 4 4 < ............",
"........  < b G G G G j &             & j J G G G c <   ........",
"........  4 S  . . . .Q d < 4 9 9 4 < d R  . . . .G 4   ........",
"....      4 G  . . . .] Q G G J J G G Q ]  . . . .G 4       ....",
"....< < < d Q  . . . . . .] Q G G Q ]  . . . . . .Q d < < < ....",
"  < c G G Q ]  . . . . . .Q p , , p Q  . . . . . .] Q G G c <   ",
"  4 S  . . . .` U R `  . .R p = = i Q  . .` R U `  . . . .G 4   ",
"  4 G  . . . .R y y U  . .` R Z Z R `  . .U y i R  . . . .S 4   ",
"  4 S  . .] Q b q i R  . . . . . . . . . .R y q b Q ]  . .S 4   ",
"  4 S  . .R i q b Q ]  . . . . . . . . . .] Q b q i U  . .S 4   ",
"  , b G J b w i R  . .` U R `  . .` R R `  . .R i w B J J b <   ",
"....< < < t C ) ]  . .R y y R  . .U y y U  . .] ) C t < 4 < ....",
"....      < B ) ]  . .R y y U  . .R y y R  . .| _ c =       ....",
"............< d Q  . .` U R `  . .` R U `  . .Q f & O       ....",
"............  , b Q ]  . . . . . . . . . .| Q g & X & 9 9 < ....",
"................= d R  . . . . . . . . . .Q d # . & j U J b <   ",
"................  < b J S S S S S S S G J B <     4 G  . .S 4   ",
"....        ........< 4 < < < , , , , , 4 < ....  4 G  . .S 4   ",
"....< 4 4 < ........  O # < < , < < < # O   ....  , c J J b <   ",
"  , b J J b ,   ....  & g G G S S G G g &   ........< 4 4 < ....",
"  4 S  . .S 4   ...., d R  . . . . . .R d = ........        ....",
"  4 S  . .G 4     < b ) ]  . . . . . .] ) b ,   ................",
"  < c J J B <     < G  . . . . . . . . . .S <   ................",
"....< 4 4 < ....  4 S  . . . . . . . . . .S 4   ................",
"....        ....  < b G S S G G G Q ]  . .S 4   ................",
"...................., , , < 4 < < d Q  . .S 4   ................",
"...................., 4 4 & O     & j J J g &   ................",
"................  < B U U c =     O & 4 4 & O   ................",
"................  & c U U C <                   ................",
"................  O = 9 9 4 ....................................",
"................            ...................................."
};
