/* XPM */
static char *pl_lf1[] = {
/* columns rows colors chars-per-pixel */
"32 32 98 2 ",
"   c black",
".  c #090909",
"X  c gray4",
"o  c #0B0B0B",
"O  c #0C0C0C",
"+  c gray5",
"@  c #0E0E0E",
"#  c gray6",
"$  c gray14",
"%  c #282828",
"&  c gray16",
"*  c #2A2A2A",
"=  c gray17",
"-  c #2C2C2C",
";  c #2D2D2D",
":  c gray18",
">  c #2F2F2F",
",  c gray19",
"<  c #313131",
"1  c gray20",
"2  c #343434",
"3  c #353535",
"4  c gray21",
"5  c #373737",
"6  c gray22",
"7  c #393939",
"8  c #3A3A3A",
"9  c gray23",
"0  c #3C3C3C",
"q  c gray24",
"w  c #3E3E3E",
"e  c #3F3F3F",
"r  c #414141",
"t  c #535353",
"y  c #565656",
"u  c gray34",
"i  c #5B5B5B",
"p  c gray36",
"a  c gray39",
"s  c #656565",
"d  c gray40",
"f  c #676767",
"g  c #686868",
"h  c DimGray",
"j  c gray42",
"k  c #6C6C6C",
"l  c #6D6D6D",
"z  c gray43",
"x  c gray55",
"c  c #8D8D8D",
"v  c gray56",
"b  c #909090",
"n  c gray57",
"m  c #929292",
"M  c #939393",
"N  c gray59",
"B  c #979797",
"V  c #989898",
"C  c #9A9A9A",
"Z  c #9B9B9B",
"A  c gray61",
"S  c #9D9D9D",
"D  c gray62",
"F  c gray63",
"G  c #A4A4A4",
"H  c gray74",
"J  c gray",
"K  c gray75",
"L  c #C0C0C0",
"P  c #C1C1C1",
"I  c gray76",
"U  c #C3C3C3",
"Y  c gray77",
"T  c #C5C5C5",
"R  c #C6C6C6",
"E  c gray78",
"W  c #C8C8C8",
"Q  c #CACACA",
"!  c #CBCBCB",
"~  c #CDCDCD",
"^  c #CECECE",
"/  c gray81",
"(  c gray82",
")  c #D2D2D2",
"_  c LightGray",
"`  c gray83",
"'  c #D8D8D8",
"]  c gray85",
"[  c #EEEEEE",
"{  c #EFEFEF",
"}  c gray95",
"|  c #F3F3F3",
" . c #F4F4F4",
".. c gray96",
"X. c #F6F6F6",
"o. c #F8F8F8",
"O. c white",
"+. c None",
/* pixels */
"+.+.+.+.+.+.+.+.+.+.+.+.+.+.                +.+.+.+.+.+.+.+.+.+.",
"+.+.+.+.+.+.+.+.+.+.+.+.+.+.q r q q 6 q q 6 +.+.+.+.+.+.+.+.+.+.",
"+.+.+.+.+.+.+.+.+.+.      q A T L K L L L V 6   +.+.+.+.+.+.+.+.",
"+.+.+.+.+.+.+.+.+.+.6 6 6 p G ]  .O.O.O.O.K q   +.+.+.+.+.+.+.+.",
"+.+.+.+.+.+.+.+.  6 V L L A i k ^ O.O.O.O.K q       +.+.+.+.+.+.",
"+.+.+.+.+.+.+.+.  6 K O.O.K 4 6 K O.O.O.O.L 6 X - 6 +.+.+.+.+.+.",
"+.+.+.+.+.+.+.+.  q K O.O.K 4 4 K O.O.O.O.K 6 = n A 6   +.+.+.+.",
"+.+.+.+.+.+.+.+.  = x `  .^ h f ! O.O.O.O.^ f h ( T q   +.+.+.+.",
"+.+.+.+.+.+.+.+.  X $ h ( | ( ^ [ O.O.O.O.[ ^ (  .L q   +.+.+.+.",
"+.+.+.+.+.+.+.+.  X $ h ^ O.O.[ ! ! [ O.O.O.O.O.O.K q   +.+.+.+.",
"+.+.+.+.+.+.+.+.  = x ( | O.O.! a a ^ O.O.O.O.O.O.K q   +.+.+.+.",
"+.+.+.+.+.+.+.+.  q L | ^ ^ | ^ f t V L K K L L L V 4   +.+.+.+.",
"+.+.+.+.+.+.+.+.  q T ( f a ^  .( V u 4 4 6 q q q 4 +.+.+.+.+.+.",
"+.+.+.+.+.+.+.+.  r L ( f a ! O.O.^ f 4 6 - #       +.+.+.+.+.+.",
"+.+.+.+.+.+.+.+.  q K | ^ ! [ O.O.[ ! L T n -   +.+.+.+.+.+.+.+.",
"+.+.+.+.+.+.+.+.  q K O.O.O.O.O.O.O.O.| ] A 6   +.+.+.+.+.+.+.+.",
"+.+.+.+.+.+.+.+.  q K O.O.O.O.O.O.O.O.^ k 4 +.+.+.+.+.+.+.+.+.+.",
"+.+.+.+.+.+.+.+.  4 B L K K L L K K L x -   +.+.+.+.+.+.+.+.+.+.",
"+.+.+.+.+.+.+.+.+.+.4 4 4 6 6 q 6 6 6 = #   +.+.+.+.+.+.+.+.+.+.",
"+.+.+.+.+.+.+.+.+.+., 6 6 = # X = 6 6 = #   +.+.+.+.+.+.+.+.+.+.",
"+.+.+.+.+.+.+.+.  4 B L L x = = x T L x -   +.+.+.+.+.+.+.+.+.+.",
"+.+.+.+.+.+.+.+.  q K O.O.H 4 6 K O.O.K q   +.+.+.+.+.+.+.+.+.+.",
"+.+.+.+.+.+.+.+.  q K O.O.K 6 6 K O.O.K q   +.+.+.+.+.+.+.+.+.+.",
"+.+.+.+.+.+.+.+.  - n T T V i h ^ O.O.^ k 4 +.+.+.+.+.+.+.+.+.+.",
"+.+.+.+.+.+.+.+.  # - 6 6 i A ` | O.O. .] A 4   +.+.+.+.+.+.+.+.",
"+.+.+.+.+.+.+.+.      # = h (  .( K K L ! A 6   +.+.+.+.+.+.+.+.",
"+.+.+.+.+.+.+.+.+.+.  - x ` o.( k 4 4 6 q q +.+.+.+.+.+.+.+.+.+.",
"+.+.+.+.+.+.+.+.+.+.  - B ! ! x - X = - #   +.+.+.+.+.+.+.+.+.+.",
"+.+.+.+.+.+.+.+.+.+.  # , r q = X , V B ,   +.+.+.+.+.+.+.+.+.+.",
"+.+.+.+.+.+.+.+.+.+.              , V F q   +.+.+.+.+.+.+.+.+.+.",
"+.+.+.+.+.+.+.+.+.+.+.+.+.+.+.+.  # , q +.+.+.+.+.+.+.+.+.+.+.+.",
"+.+.+.+.+.+.+.+.+.+.+.+.+.+.+.+.        +.+.+.+.+.+.+.+.+.+.+.+."
};
