/* XPM */
static char *pl_lf2[] = {
/* columns rows colors chars-per-pixel */
"32 32 102 2 ",
"   c black",
".  c #090909",
"X  c gray4",
"o  c #0C0C0C",
"O  c gray5",
"+  c #0E0E0E",
"@  c gray6",
"#  c gray14",
"$  c gray16",
"%  c #2A2A2A",
"&  c gray17",
"*  c #2C2C2C",
"=  c #2D2D2D",
"-  c gray18",
";  c #2F2F2F",
":  c gray19",
">  c #313131",
",  c gray20",
"<  c #343434",
"1  c #353535",
"2  c gray21",
"3  c #373737",
"4  c gray22",
"5  c #393939",
"6  c #3A3A3A",
"7  c gray23",
"8  c #3C3C3C",
"9  c gray24",
"0  c #3E3E3E",
"q  c #3F3F3F",
"w  c #414141",
"e  c gray26",
"r  c #535353",
"t  c #565656",
"y  c #5B5B5B",
"u  c gray36",
"i  c #5D5D5D",
"p  c gray37",
"a  c #606060",
"s  c gray39",
"d  c #656565",
"f  c gray40",
"g  c #676767",
"h  c #686868",
"j  c DimGray",
"k  c gray42",
"l  c #6C6C6C",
"z  c gray43",
"x  c #6F6F6F",
"c  c gray55",
"v  c #8D8D8D",
"b  c gray56",
"n  c #909090",
"m  c #929292",
"M  c gray58",
"N  c #959595",
"B  c #979797",
"V  c #989898",
"C  c gray60",
"Z  c #9A9A9A",
"A  c #9B9B9B",
"S  c gray61",
"D  c #9D9D9D",
"F  c gray62",
"G  c #9F9F9F",
"H  c #A2A2A2",
"J  c #A4A4A4",
"K  c gray65",
"L  c gray74",
"P  c gray",
"I  c gray75",
"U  c #C0C0C0",
"Y  c #C1C1C1",
"T  c gray76",
"R  c #C3C3C3",
"E  c gray77",
"W  c #C5C5C5",
"Q  c #C6C6C6",
"!  c #C8C8C8",
"~  c gray79",
"^  c #CBCBCB",
"/  c gray80",
"(  c #CDCDCD",
")  c #CECECE",
"_  c gray81",
"`  c gray82",
"'  c #D2D2D2",
"]  c LightGray",
"[  c gray83",
"{  c #D5D5D5",
"}  c #D8D8D8",
"|  c gray86",
" . c #EEEEEE",
".. c #EFEFEF",
"X. c gray95",
"o. c #F3F3F3",
"O. c #F4F4F4",
"+. c gray96",
"@. c #F6F6F6",
"#. c #F9F9F9",
"$. c white",
"%. c None",
/* pixels */
"%.%.%.%.%.%.%.%.%.%.%.%.%.%.                %.%.%.%.%.%.%.%.%.%.",
"%.%.%.%.%.%.%.%.%.%.%.%.%.%.4 w 9 9 9 9 9 4 %.%.%.%.%.%.%.%.%.%.",
"%.%.%.%.%.%.%.%.%.%.      4 H W U I I I U V 4   %.%.%.%.%.%.%.%.",
"%.%.%.%.%.%.%.%.%.%.4 4 4 p J } o.$.$.$.$.I 9   %.%.%.%.%.%.%.%.",
"%.%.%.%.%.%.%.%.  4 V U U S y l ) $.$.$.$.I 9       %.%.%.%.%.%.",
"%.%.%.%.%.%.%.%.  4 I $.$.I 2 4 I $.$.$.$.U 4 X * 4 %.%.%.%.%.%.",
"%.%.%.%.%.%.%.%.  9 I $.$.I 2 2 I $.$.$.$.I 4 & m S 4   %.%.%.%.",
"%.%.%.%.%.%.%.%.  & c [ O.) j g ^ $.$.$.$.) g j [ U 9   %.%.%.%.",
"%.%.%.%.%.%.%.%.  X # j ` o.` )  .$.$.$.$. .) ` O.U 9   %.%.%.%.",
"%.%.%.%.%.%.%.%.  X # j ) $.$. .^ ^  .$.$.$.$.$.$.U 9   %.%.%.%.",
"%.%.%.%.%.%.%.%.  & c ` o.$.$.^ s s ) $.$.$.$.$.$.I 9   %.%.%.%.",
"%.%.%.%.%.%.%.%.  9 U o.) ) o.) g r V U I I U U U V 2   %.%.%.%.",
"%.%.%.%.%.%.%.%.  9 W ` g s ) O.` V t 2 2 4 9 9 9 2 %.%.%.%.%.%.",
"%.%.%.%.%.%.%.%.  w U ` g s ^ $.$.) g 2 4 * +       %.%.%.%.%.%.",
"%.%.%.%.%.%.%.%.  9 I o.) ^  .$.$. .) I W M *   %.%.%.%.%.%.%.%.",
"%.%.%.%.%.%.%.%.  9 I $.$.$.$.$.$.$.$.o.} S 4   %.%.%.%.%.%.%.%.",
"%.%.%.%.%.%.%.%.  9 I $.$.$.$.$.$.$.$.) l 4 %.%.%.%.%.%.%.%.%.%.",
"%.%.%.%.%.%.%.%.  4 M U U I I I I I W m *   %.%.%.%.%.%.%.%.%.%.",
"%.%.%.%.%.%.%.%.%.%.> 4 9 9 4 2 2 4 9 * +   %.%.%.%.%.%.%.%.%.%.",
"%.%.%.%.%.%.%.%.%.%.2 & X + & 4 4 & +       %.%.%.%.%.%.%.%.%.%.",
"%.%.%.%.%.%.%.%.  9 S m & & c U W c *       %.%.%.%.%.%.%.%.%.%.",
"%.%.%.%.%.%.%.%.  9 W U 9 2 I $.$.U 9       %.%.%.%.%.%.%.%.%.%.",
"%.%.%.%.%.%.%.%.  w W U 9 2 I $.$.U 9       %.%.%.%.%.%.%.%.%.%.",
"%.%.%.%.%.%.%.%.  9 W [ l p S W W H s 9 w 9 %.%.%.%.%.%.%.%.%.%.",
"%.%.%.%.%.%.%.%.  9 I O.| J p 4 4 p J ^ ) S 4   %.%.%.%.%.%.%.%.",
"%.%.%.%.%.%.%.%.  4 V ^ ^ M >     > M ) ) V 4   %.%.%.%.%.%.%.%.",
"%.%.%.%.%.%.%.%.%.%.4 9 9 * +     + > w w 4 %.%.%.%.%.%.%.%.%.%.",
"%.%.%.%.%.%.%.%.%.%.  + * 9 w > @           %.%.%.%.%.%.%.%.%.%.",
"%.%.%.%.%.%.%.%.%.%.  > m ) ) M >   %.%.%.%.%.%.%.%.%.%.%.%.%.%.",
"%.%.%.%.%.%.%.%.%.%.  * m ^ ) m *   %.%.%.%.%.%.%.%.%.%.%.%.%.%.",
"%.%.%.%.%.%.%.%.%.%.  @ * w w > @   %.%.%.%.%.%.%.%.%.%.%.%.%.%.",
"%.%.%.%.%.%.%.%.%.%.                %.%.%.%.%.%.%.%.%.%.%.%.%.%."
};
