/* XPM */
static char *pl_rt2[] = {
/* columns rows colors chars-per-pixel */
"32 32 106 2 ",
"   c black",
".  c #090909",
"X  c #0A0A0A",
"o  c #0C0C0C",
"O  c #0D0D0D",
"+  c #0E0E0E",
"@  c #0F0F0F",
"#  c #101010",
"$  c #252525",
"%  c #292929",
"&  c #2A2A2A",
"*  c #2B2B2B",
"=  c #2C2C2C",
"-  c #2D2D2D",
";  c #2E2E2E",
":  c #2F2F2F",
">  c #303030",
",  c #323232",
"<  c #343434",
"1  c #353535",
"2  c #373737",
"3  c #383838",
"4  c #393939",
"5  c #3A3A3A",
"6  c #3B3B3B",
"7  c #3C3C3C",
"8  c #3D3D3D",
"9  c #3E3E3E",
"0  c #3F3F3F",
"q  c #404040",
"w  c #414141",
"e  c #424242",
"r  c #535353",
"t  c #575757",
"y  c #5B5B5B",
"u  c #5C5C5C",
"i  c #5D5D5D",
"p  c #5E5E5E",
"a  c #5F5F5F",
"s  c #606060",
"d  c #636363",
"f  c #646464",
"g  c #666666",
"h  c #676767",
"j  c #686868",
"k  c #696969",
"l  c #6A6A6A",
"z  c #6B6B6B",
"x  c #6C6C6C",
"c  c #6F6F6F",
"v  c #707070",
"b  c #8C8C8C",
"n  c #8D8D8D",
"m  c #909090",
"M  c #919191",
"N  c #929292",
"B  c #939393",
"V  c #959595",
"C  c #969696",
"Z  c #989898",
"A  c #9A9A9A",
"S  c #9B9B9B",
"D  c #9C9C9C",
"F  c #9D9D9D",
"G  c #9E9E9E",
"H  c #9F9F9F",
"J  c #A0A0A0",
"K  c #A3A3A3",
"L  c #A5A5A5",
"P  c #A6A6A6",
"I  c #BEBEBE",
"U  c #BFBFBF",
"Y  c #C0C0C0",
"T  c #C1C1C1",
"R  c #C2C2C2",
"E  c #C3C3C3",
"W  c #C4C4C4",
"Q  c #C5C5C5",
"!  c #C6C6C6",
"~  c #C7C7C7",
"^  c #C8C8C8",
"/  c #CACACA",
"(  c #CBCBCB",
")  c #CCCCCC",
"_  c #CDCDCD",
"`  c #CECECE",
"'  c #CFCFCF",
"]  c #D0D0D0",
"[  c #D1D1D1",
"{  c #D2D2D2",
"}  c #D3D3D3",
"|  c #D4D4D4",
" . c #D5D5D5",
".. c #D8D8D8",
"X. c #DCDCDC",
"o. c #EEEEEE",
"O. c #EFEFEF",
"+. c #F2F2F2",
"@. c #F3F3F3",
"#. c #F4F4F4",
"$. c #F5F5F5",
"%. c #F6F6F6",
"&. c #F7F7F7",
"*. c #FAFAFA",
"=. c white",
"-. c None",
/* pixels */
"-.-.-.-.-.-.-.-.-.-.                -.-.-.-.-.-.-.-.-.-.-.-.-.-.",
"-.-.-.-.-.-.-.-.-.-.4 0 4 0 4 0 q 0 -.-.-.-.-.-.-.-.-.-.-.-.-.-.",
"-.-.-.-.-.-.-.-.  4 C E E I I E ^ D 4       -.-.-.-.-.-.-.-.-.-.",
"-.-.-.-.-.-.-.-.  0 I =.=.=.=.@...L p 4 4 4 -.-.-.-.-.-.-.-.-.-.",
"-.-.-.-.-.-.      0 I =.=.=.=.' x p D Q Q A <   -.-.-.-.-.-.-.-.",
"-.-.-.-.-.-.4 * . 0 E =.=.=.=.I 4 < I =.=.I 0   -.-.-.-.-.-.-.-.",
"-.-.-.-.  4 D M * 4 I =.=.=.=.I 4 4 I =.=.I 0   -.-.-.-.-.-.-.-.",
"-.-.-.-.  0 E | j g ' =.=.=.=.' g j ' %.| b *   -.-.-.-.-.-.-.-.",
"-.-.-.-.  0 I %.} ' O.=.=.=.=.@.' } @.} j $ .   -.-.-.-.-.-.-.-.",
"-.-.-.-.  4 I =.=.=.=.=.=.O.' ^ O.=.=.' j $ .   -.-.-.-.-.-.-.-.",
"-.-.-.-.  0 I =.=.=.=.=.=.^ d d ^ =.=.@.| b *   -.-.-.-.-.-.-.-.",
"-.-.-.-.  4 C E E E I I E A r g ' @.' ' %.E 0   -.-.-.-.-.-.-.-.",
"-.-.-.-.-.-.4 0 0 4 4 < < t A } %.' d g } E 0   -.-.-.-.-.-.-.-.",
"-.-.-.-.-.-.      @ : 4 < j ' =.=.' d g } E 0   -.-.-.-.-.-.-.-.",
"-.-.-.-.-.-.-.-.  : M ^ E ' O.=.=.O.^ } %.E 0   -.-.-.-.-.-.-.-.",
"-.-.-.-.-.-.-.-.  4 D ..@.=.=.=.=.=.=.=.=.I 4   -.-.-.-.-.-.-.-.",
"-.-.-.-.-.-.-.-.-.-.< x ' =.=.=.=.=.=.=.=.I 4   -.-.-.-.-.-.-.-.",
"-.-.-.-.-.-.-.-.-.-.  : M Q E I I I E E E A 4   -.-.-.-.-.-.-.-.",
"-.-.-.-.-.-.-.-.-.-.  @ : 0 4 4 4 < 4 0 4 , -.-.-.-.-.-.-.-.-.-.",
"-.-.-.-.-.-.-.-.-.-.      . * 4 4 * @ . : < -.-.-.-.-.-.-.-.-.-.",
"-.-.-.-.-.-.-.-.-.-.      : b Q Q b * * M D 4   -.-.-.-.-.-.-.-.",
"-.-.-.-.-.-.-.-.-.-.      0 E =.=.I 4 4 E Q q   -.-.-.-.-.-.-.-.",
"-.-.-.-.-.-.-.-.-.-.      0 E =.=.I 4 0 E Q q   -.-.-.-.-.-.-.-.",
"-.-.-.-.-.-.-.-.-.-.0 q 0 d J Q Q J p x | Q 0   -.-.-.-.-.-.-.-.",
"-.-.-.-.-.-.-.-.  4 D ' ^ L p 4 4 p L ..*.E 0   -.-.-.-.-.-.-.-.",
"-.-.-.-.-.-.-.-.  4 D ' ' C :     : C ^ ^ A <   -.-.-.-.-.-.-.-.",
"-.-.-.-.-.-.-.-.-.-.4 q q , @     @ : 0 0 4 -.-.-.-.-.-.-.-.-.-.",
"-.-.-.-.-.-.-.-.-.-.          # , q 0 * @   -.-.-.-.-.-.-.-.-.-.",
"-.-.-.-.-.-.-.-.-.-.-.-.-.-.  : C ' ' M :   -.-.-.-.-.-.-.-.-.-.",
"-.-.-.-.-.-.-.-.-.-.-.-.-.-.  : C ^ ' M :   -.-.-.-.-.-.-.-.-.-.",
"-.-.-.-.-.-.-.-.-.-.-.-.-.-.  # , q q , @   -.-.-.-.-.-.-.-.-.-.",
"-.-.-.-.-.-.-.-.-.-.-.-.-.-.                -.-.-.-.-.-.-.-.-.-."
};
