/* XPM */
static char *pl_rt1[] = {
/* columns rows colors chars-per-pixel */
"32 32 100 2 ",
"   c black",
".  c #090909",
"X  c #0A0A0A",
"o  c #0B0B0B",
"O  c #0C0C0C",
"+  c #0D0D0D",
"@  c #0E0E0E",
"#  c #0F0F0F",
"$  c #101010",
"%  c #252525",
"&  c #282828",
"*  c #292929",
"=  c #2A2A2A",
"-  c #2B2B2B",
";  c #2C2C2C",
":  c #2D2D2D",
">  c gray18",
",  c #303030",
"<  c #313131",
"1  c #323232",
"2  c #343434",
"3  c #353535",
"4  c #363636",
"5  c #373737",
"6  c #383838",
"7  c #393939",
"8  c #3A3A3A",
"9  c #3B3B3B",
"0  c #3C3C3C",
"q  c #3D3D3D",
"w  c #3E3E3E",
"e  c #3F3F3F",
"r  c #414141",
"t  c #535353",
"y  c #575757",
"u  c #585858",
"i  c #5B5B5B",
"p  c #5D5D5D",
"a  c #636363",
"s  c #646464",
"d  c #666666",
"f  c #676767",
"g  c #686868",
"h  c #696969",
"j  c #6A6A6A",
"k  c #6B6B6B",
"l  c #6C6C6C",
"z  c #6D6D6D",
"x  c #6F6F6F",
"c  c #8C8C8C",
"v  c #8D8D8D",
"b  c #8E8E8E",
"n  c #909090",
"m  c #919191",
"M  c #939393",
"N  c #979797",
"B  c #989898",
"V  c #9A9A9A",
"C  c #9C9C9C",
"Z  c #9D9D9D",
"A  c #9E9E9E",
"S  c #9F9F9F",
"D  c #A2A2A2",
"F  c #A5A5A5",
"G  c #BDBDBD",
"H  c #BEBEBE",
"J  c #BFBFBF",
"K  c #C0C0C0",
"L  c #C1C1C1",
"P  c #C2C2C2",
"I  c #C3C3C3",
"U  c gray77",
"Y  c #C5C5C5",
"T  c #C6C6C6",
"R  c #C7C7C7",
"E  c #C9C9C9",
"W  c #CBCBCB",
"Q  c #CCCCCC",
"!  c #CDCDCD",
"~  c #CECECE",
"^  c #CFCFCF",
"/  c #D0D0D0",
"(  c #D1D1D1",
")  c #D2D2D2",
"_  c #D3D3D3",
"`  c #D4D4D4",
"'  c #D5D5D5",
"]  c #D8D8D8",
"[  c #D9D9D9",
"{  c #EEEEEE",
"}  c #EFEFEF",
"|  c #F2F2F2",
" . c #F3F3F3",
".. c #F4F4F4",
"X. c #F5F5F5",
"o. c #F6F6F6",
"O. c #F7F7F7",
"+. c #F8F8F8",
"@. c white",
"#. c None",
/* pixels */
"#.#.#.#.#.#.#.#.#.#.                #.#.#.#.#.#.#.#.#.#.#.#.#.#.",
"#.#.#.#.#.#.#.#.#.#.7 e 7 e 7 e r 7 #.#.#.#.#.#.#.#.#.#.#.#.#.#.",
"#.#.#.#.#.#.#.#.  5 N I I G G I Y D 7       #.#.#.#.#.#.#.#.#.#.",
"#.#.#.#.#.#.#.#.  e G @.@.@.@. .] F p 7 7 7 #.#.#.#.#.#.#.#.#.#.",
"#.#.#.#.#.#.      e G @.@.@.@.^ z p C Y I V 5   #.#.#.#.#.#.#.#.",
"#.#.#.#.#.#.7 - . e I @.@.@.@.G 5 5 G @.@.G e   #.#.#.#.#.#.#.#.",
"#.#.#.#.  7 C m - 7 G @.@.@.@.G 7 5 G @.@.G e   #.#.#.#.#.#.#.#.",
"#.#.#.#.  e I ` k f ^ @.@.@.@.^ f k ^ o.` c -   #.#.#.#.#.#.#.#.",
"#.#.#.#.  e G o._ ^ } @.@.@.@.} ^ _  ._ k % X   #.#.#.#.#.#.#.#.",
"#.#.#.#.  7 G @.@.@.@.@.@.} W W } @.@.^ k % X   #.#.#.#.#.#.#.#.",
"#.#.#.#.  e G @.@.@.@.@.@.^ a a W @.@. ._ c -   #.#.#.#.#.#.#.#.",
"#.#.#.#.  5 N I I G I G G V t f ^  .^ ^  .G e   #.#.#.#.#.#.#.#.",
"#.#.#.#.#.#.7 e e 7 7 5 1 y V _ o.^ a f _ I e   #.#.#.#.#.#.#.#.",
"#.#.#.#.#.#.      # > 7 5 f ^ @.@.W a f _ I e   #.#.#.#.#.#.#.#.",
"#.#.#.#.#.#.#.#.  > N Y G ^ } @.@.} W ^ o.I e   #.#.#.#.#.#.#.#.",
"#.#.#.#.#.#.#.#.  7 C ] o.@.@.@.@.@.@.@.@.G 7   #.#.#.#.#.#.#.#.",
"#.#.#.#.#.#.#.#.#.#.5 z ^ @.@.@.@.@.@.@.@.G 7   #.#.#.#.#.#.#.#.",
"#.#.#.#.#.#.#.#.#.#.  - c I I G I G I G I V 7   #.#.#.#.#.#.#.#.",
"#.#.#.#.#.#.#.#.#.#.  # - 7 7 7 7 e 7 5 5 1 #.#.#.#.#.#.#.#.#.#.",
"#.#.#.#.#.#.#.#.#.#.  # - 7 7 - # X - 7 5 5 #.#.#.#.#.#.#.#.#.#.",
"#.#.#.#.#.#.#.#.#.#.  > c Y Y c % - c Y Y N 5   #.#.#.#.#.#.#.#.",
"#.#.#.#.#.#.#.#.#.#.  e G @.@.G 7 5 G @.@.G e   #.#.#.#.#.#.#.#.",
"#.#.#.#.#.#.#.#.#.#.  e G @.@.G 5 5 G @.@.I 7   #.#.#.#.#.#.#.#.",
"#.#.#.#.#.#.#.#.#.#.5 z _ @.@.^ k y V Y Y m >   #.#.#.#.#.#.#.#.",
"#.#.#.#.#.#.#.#.  7 C ]  .@.@. .` C y 5 e > #   #.#.#.#.#.#.#.#.",
"#.#.#.#.#.#.#.#.  7 C W I G G _ o._ k - X       #.#.#.#.#.#.#.#.",
"#.#.#.#.#.#.#.#.#.#.7 e 7 5 5 z _ o.] m >   #.#.#.#.#.#.#.#.#.#.",
"#.#.#.#.#.#.#.#.#.#.  # > > X - m Y ^ m >   #.#.#.#.#.#.#.#.#.#.",
"#.#.#.#.#.#.#.#.#.#.  1 N N 1 X - r r > #   #.#.#.#.#.#.#.#.#.#.",
"#.#.#.#.#.#.#.#.#.#.  e D V 1               #.#.#.#.#.#.#.#.#.#.",
"#.#.#.#.#.#.#.#.#.#.#.#.e > $   #.#.#.#.#.#.#.#.#.#.#.#.#.#.#.#.",
"#.#.#.#.#.#.#.#.#.#.#.#.        #.#.#.#.#.#.#.#.#.#.#.#.#.#.#.#."
};
