/* XPM */
static char *points_UI[] = {
/* columns rows colors chars-per-pixel */
"128 64 45 1 ",
"  c black",
". c #090909",
"X c #0E0E0E",
"o c #111111",
"O c #252525",
"+ c gray16",
"@ c #2D2D2D",
"# c #323232",
"$ c gray21",
"% c gray22",
"& c gray24",
"* c gray25",
"= c #434343",
"- c #535353",
"; c gray34",
": c #585858",
"> c #5D5D5D",
", c #626262",
"< c #656565",
"1 c gray42",
"2 c #6C6C6C",
"3 c #717171",
"4 c gray55",
"5 c #929292",
"6 c gray59",
"7 c #989898",
"8 c gray61",
"9 c #A0A0A0",
"0 c gray65",
"q c gray67",
"w c #BCBCBC",
"e c gray",
"r c gray76",
"t c #C6C6C6",
"y c #C8C8C8",
"u c gray81",
"i c gray82",
"p c gray83",
"a c #DADADA",
"s c #EFEFEF",
"d c #F1F1F1",
"f c #F6F6F6",
"g c #F8F8F8",
"h c white",
"j c None",
/* pixels */
"jjjjjjjjjjjjjjjjjjjjjjjjjjjjjjjjjjjjjjjjjjjjjjjjjjjjjjjjjjjjjjjjjjjjjjjjjjjjjjjjjjjjjjjjjjjjjjjjjjjjjjjjjjjjjjjjjjjjjjjjjjjjjjjj",
"jjjjjjjjjjjjjjjjjjjjjjjjjjjjjjjjjjjjjjjjjjjjjjjjjjjjjjjjjjjjjjjjjjjjjjjjjjjjjjjjjjjjjjjjjjjjjjjjjjjjjjjjjjjjjjjjjjjjjjjjjjjjjjjj",
"jjjjjjjjjjjjjjjjjjjjjjjjjjjjjjjjjjjjjjjjjjjjjjjjjjjjjjjjjjjjjjjjjjjjjjjjjjjjjjjjjjjjjjjjjjjjjjjjjjjjjjjjjjjjjjjjjjjjjjjjjjjjjjjj",
"jjjjjjjjjjjjjjjjjjjjjjjjjjjjjjjjjjjjjjjjjjjjjjjjjjjjjjjjjjjjjjjjjjjjjjjjjjjjjjjjjjjjjjjjjjjjjjjjjjjjjjjjjjjjjjjjjjjjjjjjjjjjjjjj",
"jjjjjjjjjjjjjjjjjjjjjjjjjjjjjjjjjjjjjjjjjjjjjjjjjjjjjjjjjjjjjjjjjjjjjjjjjjjjjjjjjjjjjjjjjjjjjjjjjjjjjjjjjjjjjjjjjjjjjjjjjjjjjjjj",
"jjjjjjjjjjjjjjjjjjjjjjjjjjjjjjjjjjjjjjjjjjjjjjjjjjjjjjjjjjjjjjjjjjjjjjjjjjjjjjjjjjjjjjjjjjjjjjjjjjjjjjjjjjjjjjjjjjjjjjjjjjjjjjjj",
"jjjjjjjjjjjjjjjjjjjjjjjjjjjjjjjjjjjjjjjjjjjjjjjjjjjjjjjjjjjjjjjjjjjjjjjjjjjjjjjjjjjjjjjjjjjj                jjjjjjjjjjjjjjjjjjjj",
"jjjjjjjjjjjjjjjjjjjjjjjjjjjjjjjjjjjjjjjjjjjjjjjjjjjjjjjjjjjjjjjjjjjjjjjjjjjjjjjjjjjjjjjjjjjj%&&&&&%&&&&&&&&%jjjjjjjjjjjjjjjjjjjj",
"jjjjjjjjjjjjjjjjjjjjjjjjjjjjjjjjjjjjjjjjjjjjjjjjjjjjjjjjjjjjjjjjjjjjjjjjjjjjjjjjjjjjjjjj   $6rreeeereeeeerr7%     jjjjjjjjjjjjjj",
"jjjjjjjjjjjjjjjjjjjjjjjjjjjjjjjjjjjjjjjjjjjjjjjjjjjjjjjjjjjjjjjjjjjjjjjjjjjjjjjjjjjjjjjj%%%1ihhhhhhhhhhhhhhi1%%&&%jjjjjjjjjjjjjj",
"jjjjjjjjjj                                                                  jjjjjjjjjj $7reudhhhhhhhhhhhhhhsueerr7$ jjjjjjjjjjjj",
"jjjjjjjjjj&*********************&******************************************%jjjjjjjjjj &ehhhhhhhhhhhhhhhhhhhhhhhhu1#jjjjjjjjjjjj",
"jjjjjjjj %8yttttttrtttttttryttttttttttttttttttttttttttttttttttttttrttttttyy8% jjjjjjjj &ehhhhhhhhhhhhhhhhhhhhhhhhdi6$ jjjjjjjjjj",
"jjjjjjjj$>0yyyttyytyyyttyytyyyttttyyttytyyytyyyyttttyyyttyyyttttyytyyyyyyti0>#jjjjjjjj$1uhhhhhhhhhhhhhhhhhhhhhhhhhhu1#jjjjjjjjjj",
"jjjjjj %70<&****=***=***=********==******=*********=*****=*****==***=*****&,08&      %7pdhhhhhhhhhhhhhhhhhhhhhhhhhhdi6$ jjjjjjjj",
"jjjjjj *ty*                                                                *ty*    X+2ihhhhhhhhhhhhhhhhhhhhhhhhhhhhhhu1#jjjjjjjj",
"jjjjjj &ty=                                                                *yy*    @4idhhhhhhhhhhhhhhhhhhhhhhhhhhhhhhdi6$ jjjjjj",
"jjjjjj *ty*                                                                =yt*    &rhhhhhhhhhhhhhhhhhhhhhhhhhhhhhhhhhhe% jjjjjj",
"jjjjjj *rt*                                                                *yy*    &rhhhhhhhhhhhhhhhhhhhhhhhhhhhhhhhhhhe& jjjjjj",
"jjjjjj *ty*                                                                =yy=    @5pfdirrrridhhhhhhhhhhhhhhhhhhhhhhhhu2$jjjjjj",
"jjjjjj *ty=                                                                =yy=    X@3pp3%&%%2ihhhhhhhhhhhhhhhhhhhhhhhhdp7$ jjjj",
"jjjjjj *tt*                                                                *yy*      *yy*    @5pdhhhhhhhhhhhhhhhhhhhhhhhhe& jjjj",
"jjjjjj *ty*                                                                =yy*      *ty*    X@2ihhhhhhhhhhhhhhhhhhhhhhhhe& jjjj",
"jjjjjj *ty=                                                                *yy*    X+3at*      &rhhhhhhhhhhhhhhhhhhhhhhhhe& jjjj",
"jjjjjj *rt*                                                                *yt*    @5agt&      *rhhhhhhhhhhhhhhhhhhhhhhhhe& jjjj",
"jjjjjj *ty*                                                                *yy=  X+2ihhr&    X+2ihhhhhhhhhhhhsyushhhhhhhhe& jjjj",
"jjjjjj *ty*                                                                *yy=  @6pdhhr&    @5pdhhhhhhhhhhhhy,,yhhhhhhhhe& jjjj",
"jjjjjj *tt=                                                                =yy*  &rhhhhr&  X+2pfieeeeeeeeeerr7-<uhhhhhhhhe& jjjj",
"jjjjjj *ty*                                                                *yy*  &rhhhhr&  @5afi1$$$%%$%%%$$$;8idhhhhhhhhe& jjjj",
"jjjjjj *ty=                                                                =yt*  @5pdhhu2$$2uhhu1$%%%&&%%%$$#<uhhhhhhhhhhe& jjjj",
"jjjjjj *ty*                                                                *yy=  X+2ihhdieridhhsirrtrttteeeeeushhhhhhhhhhe& jjjj",
"jjjjjj %80,%&&&&&*&&&&*&&&&*&&&&&&*&&&&*&&&&&*&&&&*&&&&*&&&&&*&&&&&&&&&&*&%,06#    @4idhhhhhhsuerrttyttpdhhhhhhhhhhhhhhdi6$ jjjj",
"jjjjjjjj$>9trrrrerrerrrrrrerrrrrrrrrrrrrrrrrrrrrrrrrrrrrrrrrrrrrrrrrrrrrrrt9>@X    .O1uhhhhhhi<$%&****&2ihhhhhhhhhhhhhhu1#jjjjjj",
"jjjjjjjj %ehhhhhhhhhhhhhhhhhhhhhhhhhhhhhhhhhhhhhhhhhhhhhhhhhhhhhhhhhhhhhhhhr&    X#%$<ifueerr8;$$@X    &rhhhhhhhhhhhhdi6$ jjjjjj",
"jjjjjjjj &rhhhhhhhhhhhhhhhhhhhhhhhhhhhhhhhhhhhhhhhhhhhhhhhhhhhhhhhhhhhhhhhhr&    #5trifu1$$$$:8tt4@    &rhhhhhhhhhhhhu1#jjjjjjjj",
"jjjjjjjj %7trrrrrrrrrrrrrrrrrrrrrrrrrerrrrrrrerrrrrrrerrrrrrrerrrrrrerrrrtt5@    &rhhdp8;$%%$1uhhr&    #5pdhhhhhhhhdi6$ jjjjjjjj",
"jjjjjjjjjj%&&&&&&*&&*&&&&&&%&*&&&&*&&&&%&*&&&&&%&*&&&&&%&*&&&&&%&&&&&&&&&**@o    &rhhu1:8yttridhhr&    X+2ihhhhhhhhu1#jjjjjjjjjj",
"jjjjjjjjjj                                                                       @4ty5+@7yttttert9,@X    @5pdhhdirr7% jjjjjjjjjj",
"jjjjjjjjjj                                                                       X+&&@XX#*&&**%$%,q8#    X@2ihhi2%%%jjjjjjjjjjjj",
"jjjjjjjjjj                                                                       X@+XX@#XX@@Xo@+.#88#  o#@X+5tt4@   jjjjjjjjjjjj",
"jjjjjjjjjj                                                                       #65@@65@@66@@67#X##o  #76#.+%&+X jjjjjjjjjjjjjj",
"jjjjjjjjjj&*****=****==*=***=*****=**=****=****=***==****==****=*******=*=*#o    *tr&&rt&@77@#78$      *yt&.+%%+X jjjjjjjjjjjjjj",
"jjjjjjjj %8uuyyyyyyyyyyyyyyyyyyyyyyyyyyyyyyyyyyyyyyyyyytyyyytyyyyyyyyyyyyyi7#    *yt%&rt*.@$Xo#$o      *tt&+4tt4@ jjjjjjjjjjjjjj",
"jjjjjjjj$>0yyyyyyyyyyyytyyyyyyyyyyyyyyyyyyyyyyyyyyyyyyyyyyyyyyyyyyyyyyyyyytq,+X  #76@@66#            X+3ar%$ehhe& jjjjjjjjjjjjjj",
"jjjjjj %70<******=*=*=***=*=*=****=**=*==****=*=*=*==*=*=****=*==*=*=******<07#  X#@XX##o            @5agr%%ehhe& jjjjjjjjjjjjjj",
"jjjjjj *ty*                                                                *yy*            o$#XX#*&%%2ihhe$%ehhe& jjjjjjjjjjjjjj",
"jjjjjj *ty*                                                                *yy*            #87@@6ytrrishhe%%ehhe& jjjjjjjjjjjjjj",
"jjjjjj *tt*                                                                =yy*    o##Xo##.#76@+5afhhsuer7:1ifi6$ jjjjjjjjjjjjjj",
"jjjjjj *ty=                                                                *yy*    $87@@78#.@@XX@3ihhu1##:9pfi2#jjjjjjjjjjjjjjjj",
"jjjjjj *ty*                                                                *yy*    #76@@6q,%$%&+.&rgp7:##1ifp6$ jjjjjjjjjjjjjjjj",
"jjjjjj *rt*                                                                *yy*    X@@XX+>9tert5+&ti<-7eeudi2#jjjjjjjjjjjjjjjjjj",
"jjjjjj *ty*                                                                =yy=    X@**&$<uhhhhu1:98;<uhhdi6$ jjjjjjjjjjjjjjjjjj",
"jjjjjj *tt*                                                                *ty*    @6yyteushhhhdi8;-7idhhu1#jjjjjjjjjjjjjjjjjjjj",
"jjjjjj %70<&**=*=***=*******=**=*******=***==***=******=*******=***==******<08%    %8ytidhhhhhhhhu<<uhhdi6$ jjjjjjjjjjjjjjjjjjjj",
"jjjjjjjj%>0iyyyyttttyyytttttyytytyyyttyyttyyttytyytyytyytyyytytyyyyytyytyyy0>$jjjjjj&&&3ihhhhhhhhdiidhhu1#jjjjjjjjjjjjjjjjjjjjjj",
"jjjjjjjj %7ttttttttttttttttttttttttttttttttttttrtttttrtttttttttttttttttrtyy8% jjjjjj   %7rreeeeeerrrrrr6$ jjjjjjjjjjjjjjjjjjjjjj",
"jjjjjjjjjj&****************************************************************&jjjjjjjjjjjj%&&&&&&&&&*&&&&%jjjjjjjjjjjjjjjjjjjjjjjj",
"jjjjjjjjjj                                                                  jjjjjjjjjjjj                jjjjjjjjjjjjjjjjjjjjjjjj",
"jjjjjjjjjjjjjjjjjjjjjjjjjjjjjjjjjjjjjjjjjjjjjjjjjjjjjjjjjjjjjjjjjjjjjjjjjjjjjjjjjjjjjjjjjjjjjjjjjjjjjjjjjjjjjjjjjjjjjjjjjjjjjjjj",
"jjjjjjjjjjjjjjjjjjjjjjjjjjjjjjjjjjjjjjjjjjjjjjjjjjjjjjjjjjjjjjjjjjjjjjjjjjjjjjjjjjjjjjjjjjjjjjjjjjjjjjjjjjjjjjjjjjjjjjjjjjjjjjjj",
"jjjjjjjjjjjjjjjjjjjjjjjjjjjjjjjjjjjjjjjjjjjjjjjjjjjjjjjjjjjjjjjjjjjjjjjjjjjjjjjjjjjjjjjjjjjjjjjjjjjjjjjjjjjjjjjjjjjjjjjjjjjjjjjj",
"jjjjjjjjjjjjjjjjjjjjjjjjjjjjjjjjjjjjjjjjjjjjjjjjjjjjjjjjjjjjjjjjjjjjjjjjjjjjjjjjjjjjjjjjjjjjjjjjjjjjjjjjjjjjjjjjjjjjjjjjjjjjjjjj",
"jjjjjjjjjjjjjjjjjjjjjjjjjjjjjjjjjjjjjjjjjjjjjjjjjjjjjjjjjjjjjjjjjjjjjjjjjjjjjjjjjjjjjjjjjjjjjjjjjjjjjjjjjjjjjjjjjjjjjjjjjjjjjjjj",
"jjjjjjjjjjjjjjjjjjjjjjjjjjjjjjjjjjjjjjjjjjjjjjjjjjjjjjjjjjjjjjjjjjjjjjjjjjjjjjjjjjjjjjjjjjjjjjjjjjjjjjjjjjjjjjjjjjjjjjjjjjjjjjjj"
};
