/* XPM */
static char *start[] = {
/* columns rows colors chars-per-pixel */
"32 32 3 1 ",
"  c black",
". c white",
"X c None",
/* pixels */
"XXXXXXXXXXXXXXXXXXXXXXXXXXXXXXXX",
"XXXXXXXXXXXXXXXXXXXXXXXXXXXXXXXX",
"XXXXXXXXXXX          XXXXXXXXXXX",
"XXXXXXXXXX .......... XXXXXXXXXX",
"XXXXXXXXX ............ XXXXXXXXX",
"XXXXXXXX .............. XXXXXXXX",
"XXXXXXX ................ XXXXXXX",
"XXXXXX ........  ........ XXXXXX",
"XXXXX .........  ......... XXXXX",
"XXXX  .......      .......  XXXX",
"XXXX . ......      ...... . XXXX",
"XXXX . ........  ........ . XXXX",
"XXXX . ........  ........ . XXXX",
"XXXX . ........  ........ . XXXX",
"XXXX .. ... ...  ....... .. XXXX",
"XXXXX . ................ . XXXXX",
"XXXXX . ................ . XXXXX",
"XXXXX .. .............. .. XXXXX",
"XXXXX .. .............. .. XXXXX",
"XXXXXX . .............. . XXXXXX",
"XXXXXX .. ............ .. XXXXXX",
"XXXXXX .. ............ .. XXXXXX",
"XXXXXXX . ....... .... . XXXXXXX",
"XXXXXXX . ............ . XXXXXXX",
"XXXXXXX .. .......... .. XXXXXXX",
"XXXXXXX .. .......... .. XXXXXXX",
"XXXXXXXX .. ........ .. XXXXXXXX",
"XXXXXXXX ..          .. XXXXXXXX",
"XXXXXXXXX ............ XXXXXXXXX",
"XXXXXXXXX ............ XXXXXXXXX",
"XXXXXXXXX              XXXXXXXXX",
"XXXXXXXXXXXXXXXXXXXXXXXXXXXXXXXX"
};
