/* XPM */
static char *start[] = {
/* columns rows colors chars-per-pixel */
"16 16 47 1 ",
"  c #303030",
". c #323232",
"X c #383838",
"o c #3B3B3B",
"O c #3C3C3C",
"+ c #3D3D3D",
"@ c #424242",
"# c #4C4C4C",
"$ c #626262",
"% c #6E6E6E",
"& c #6F6F6F",
"* c #727272",
"= c #7B7B7B",
"- c #7F7F7F",
"; c #808080",
": c #878787",
"> c #888888",
", c #8C8C8C",
"< c #8F8F8F",
"1 c #909090",
"2 c #949494",
"3 c #9B9B9B",
"4 c #9C9C9C",
"5 c #9D9D9D",
"6 c #9E9E9E",
"7 c #A4A4A4",
"8 c #A6A6A6",
"9 c #B3B3B3",
"0 c #B9B9B9",
"q c #BDBDBD",
"w c #BEBEBE",
"e c #BFBFBF",
"r c #C0C0C0",
"t c #D0D0D0",
"y c #D8D8D8",
"u c #DADADA",
"i c #E2E2E2",
"p c #E3E3E3",
"a c #E4E4E4",
"s c #E7E7E7",
"d c #F2F2F2",
"f c #F4F4F4",
"g c #F5F5F5",
"h c #FDFDFD",
"j c #FEFEFE",
"k c #FFFFFF",
"l c None",
/* pixels */
"llllllllllllllll",
"lllll*1,11*lllll",
"llll-skkkks-llll",
"lll;skkwwkks;lll",
"ll tkkrXXrkkt ll",
"ll$8kkwXXwkk8$ll",
"ll&6kdk==kkk6&ll",
"ll&,pugwwkkp,&ll",
"ll+6wkkkkkkw3lll",
"lll36kkkkkk33lll",
"lll>3pkkdkp3>lll",
"lll#:ykkygy:#lll",
"llll98kkkk89llll",
"llll26,66,62llll",
"llll@0rrwr0@llll",
"lllll +X++ lllll"
};
