/* XPM */
static const char *tree[] = {
/* columns rows colors chars-per-pixel */
"32 32 3 1 ",
"  c black",
". c white",
"X c None",
/* pixels */
"XXXXXXXXXXXXXXX  XXXXXXXXXXXXXXX",
"XXXXXXXXXXXXXX .. XXXXXXXXXXXXXX",
"XXXXXXXXXXXXX .... XXXXXXXXXXXXX",
"XXXXXXXXXXXX ...... XXXXXXXXXXXX",
"XXXXXXXXXXX ..... .. XXXXXXXXXXX",
"XXXXXXXXXX ....... .. XXXXXXXXXX",
"XXXXXXXXX  ......  ..  XXXXXXXXX",
"XXXXXXXX .. ........ .. XXXXXXXX",
"XXXXXXX ....  ....  .... XXXXXXX",
"XXXXXXX ......    .... . XXXXXXX",
"XXXXXX .............. ... XXXXXX",
"XXXXX .. .  ... .... .. .. XXXXX",
"XXXX .... .. ...... .. . .. XXXX",
"XXX . ....  ........  .. . . XXX",
"XXX . ......        ...... . XXX",
"XX .. .................. . .. XX",
"XX ... .. ....... .... .. ... XX",
"XX .... .. ........   .. .... XX",
"XX ..... ...  .... .... .. .. XX",
"XXX .....  ..........  .. .. XXX",
"XXXX .  ...          ... .. XXXX",
"XXX ........................ XXX",
"XXXX ...................... XXXX",
"XXXXX  .... .....  ......  XXXXX",
"XXXXXXX  ...  ....  ...  XXXXXXX",
"XXXXXXXXX              XXXXXXXXX",
"XXXXXXXXXXX ..    .  XXXXXXXXXXX",
"XXXXXXXXXXX ... . .. XXXXXXXXXXX",
"XXXXXXXXXXX ... . .. XXXXXXXXXXX",
"XXXXXXXXXXXX .... . XXXXXXXXXXXX",
"XXXXXXXXXXXXX .... XXXXXXXXXXXXX",
"XXXXXXXXXXXXXX    XXXXXXXXXXXXXX"
};
