/* XPM */
static const char *wall_vert[] = {
/* columns rows colors chars-per-pixel */
"32 32 22 1 ",
"  c black",
". c #070707",
"X c #0A0A0A",
"o c #0E0E0E",
"O c #101010",
"+ c #262626",
"@ c #2B2B2B",
"# c #2D2D2D",
"$ c #303030",
"% c #383838",
"& c #3A3A3A",
"* c #3D3D3D",
"= c #404040",
"- c #8C8C8C",
"; c #919191",
": c #979797",
"> c #999999",
", c #BFBFBF",
"< c #C3C3C3",
"1 c #C7C7C7",
"2 c #C9C9C9",
"3 c white",
/* pixels */
"3,&&12=  =11=      =11=  =11&&,3",
"2;@*12=  =21=X@**@X=11=  $:;##-1",
"=#X=12=  =11*@-11-+*11=  o##oo#*",
"   =22=  =11&&,33,&&11=  o##oo@&",
"   =11=  =1<&&,33,&&12=  $>:##-<",
"=#X$::$  =1<&&,33,&&12=  $>:#*<3",
"2;$X#$O  =1<&%,33,&&12=  o#@X*<3",
"3<=      =11*@-11-@*12=  o#@X*<3",
"3<=      =21=.+&&+.=11=  $:;@*<3",
"<;#X#$o  =21=.+&&+.=11=  =11*@-1",
"&@X$::$  =21*@-11-+*11=  =11=X+&",
"&+X=12=  =21&&,33,&&<1=  =11=X+&",
"1-@*11=  =1<&&,33,&&11=  =11*@-<",
"3<*@;:$  =1<&&,33,&&11=  $:;@*<3",
"3<*X@#o  =1<&%,33,&&11=  o#@X*<3",
"3<*X@#o  =11*@-11-@*11=  o@@X*<3",
"3<*@;:$  =11=.+&&+.=11=  $:;@*<3",
"<-@*11=  =11=.+&&+.=11=  =11*@-<",
"&+X=11=  =21*@-11-@*11=  =11=X+&",
"&+X=11=  =2<&&,33,&&11=  $::$X+&",
"1-@*11=  =1<&&,33,&&11=  O$#X#;<",
"3<*@;:$  =1<&&,33,&&11=      =<3",
"3<*X+@o  =11&&,33,&&<1=      =<3",
"3<*X+@o  =11*@-11-@*11=  O$#X*<3",
"3<*@;:$  =11=.+&&+.=11=  $:;@*<3",
"1-@*12=  =11=.+&&+.=12=  =11*@-1",
"&+X=12=  =11*+-11-+*12=  =11=X+&",
"&+X=12=  =11&%,33,&&11=  =21=X+&",
"<-@*11=  =11&&,33,&&<1=  =21*@-<",
"3<*@;:$  =21&&,33,&&11=  $:;@*<3",
"3<*X@#o  =11&&,33,%&11=  o#@X*<3",
"3<=      =11&&,33,%&11=      =<3"
};
