/* XPM */
static const char *wall_corner[] = {
/* columns rows colors chars-per-pixel */
"32 32 32 1 ",
"  c black",
". c #0A0A0A",
"X c #0D0D0D",
"o c #0F0F0F",
"O c #282828",
"+ c #2C2C2C",
"@ c #313131",
"# c #373737",
"$ c #3B3B3B",
"% c #3C3C3C",
"& c #404040",
"* c #626262",
"= c #656565",
"- c #707070",
"; c #8D8D8D",
": c #929292",
"> c #949494",
", c #999999",
"< c #A7A7A7",
"1 c #A8A8A8",
"2 c #ACACAC",
"3 c #BFBFBF",
"4 c #C1C1C1",
"5 c #C7C7C7",
"6 c #C8C8C8",
"7 c #CECECE",
"8 c #D2D2D2",
"9 c #D5D5D5",
"0 c #D9D9D9",
"q c #F1F1F1",
"w c #F8F8F8",
"e c white",
/* pixels */
"eeeeeeeeeeeeeeeeeeeeeeeeeeeeeeee",
"eq8444444444444444444444444448qe",
"e8-%%&&&&&&&&&&&&&&&&&&&&&&%%-8e",
"e4&                          &4e",
"e4&                          &4e",
"e4&                          &4e",
"e4&                          &4e",
"e4&                          &4e",
"e4&                          &4e",
"e8-%%&&&&&&&&&&&&&&&&&&&&&&%%-8e",
"eq9555665555565565555665555559qe",
"44455555555555555555555555555433",
"%%%$$%&&%$$$$$$$$$$$$$$%&&%$%$$#",
" X+%%+XXO$$$$$$$$$$$$$$OXX+%%%$$",
" +:66:OO;45555444445555;OO:65555",
" +:77>O$4w054555555450w4$O:66555",
" X+%&+.%59-$$%&&&&%$%-05%.O%&&%%",
"&&%+X  &55&.O+X  X+O.&55&.O+XX+%",
"666>@  &55%+>,@  @,>+%55%+>>++:6",
"666>@  &55%+>2=%%=2>+%55%+>>++:6",
"&&%+X  &65&.O*1771*O.&55&.O+XX+%",
" X+%&+.&56&  +>66>+  &55&.O%&&%$",
" +:77>O%56&  X+%%+X  &55%O:66555",
" +:77>++:<*OXXO$$OX.O*<:+O:66555",
" X+%&@XXO*<>+O;55;O+:<*O.X+%&&%%",
"&&%+X    &65$$3ee3$%56&  X++XX+%",
"666>+    &65$#3ee3$$56&  @,>++:6",
"666>+    &65$$3ee3$%56&  @,>++:6",
"&&%+X    &55$$3ee3#$55&  X++XX+%",
" X+%&&&+.&55%O;55;O%55&  X+%&%%$",
" +;5556:O%55&.O%%O.&55&  +:55443",
" %3eeee3#$45&      &55&  %4eeeee"
};
