/* XPM */
static const char *zm_dn1[] = {
/* columns rows colors chars-per-pixel */
"36 36 160 2 ",
"   c black",
".  c #010101",
"X  c #030303",
"o  c #040404",
"O  c #050505",
"+  c #060606",
"@  c #070707",
"#  c #080808",
"$  c #090909",
"%  c #0A0A0A",
"&  c #0C0C0C",
"*  c #0D0D0D",
"=  c #0E0E0E",
"-  c #101010",
";  c #121212",
":  c #131313",
">  c #141414",
",  c #151515",
"<  c #161616",
"1  c #171717",
"2  c #181818",
"3  c #191919",
"4  c gray10",
"5  c #1B1B1B",
"6  c #1D1D1D",
"7  c #1E1E1E",
"8  c #1F1F1F",
"9  c #212121",
"0  c #222222",
"q  c #252525",
"w  c #262626",
"e  c #272727",
"r  c #282828",
"t  c #292929",
"y  c #2A2A2A",
"u  c #2B2B2B",
"i  c #2C2C2C",
"p  c #2D2D2D",
"a  c #2E2E2E",
"s  c #2F2F2F",
"d  c #303030",
"f  c #323232",
"g  c #343434",
"h  c #373737",
"j  c #383838",
"k  c #393939",
"l  c #3B3B3B",
"z  c #3C3C3C",
"x  c #3D3D3D",
"c  c #3E3E3E",
"v  c #3F3F3F",
"b  c #404040",
"n  c #414141",
"m  c #424242",
"M  c #434343",
"N  c #444444",
"B  c #454545",
"V  c #464646",
"C  c #4C4C4C",
"Z  c #4E4E4E",
"A  c #4F4F4F",
"S  c #505050",
"D  c #515151",
"F  c #525252",
"G  c #565656",
"H  c #5C5C5C",
"J  c #5D5D5D",
"K  c #5F5F5F",
"L  c #606060",
"P  c #626262",
"I  c #676767",
"U  c #686868",
"Y  c #696969",
"T  c #6A6A6A",
"R  c #6B6B6B",
"E  c #6C6C6C",
"W  c #6F6F6F",
"Q  c #707070",
"!  c #727272",
"~  c #767676",
"^  c #777777",
"/  c #787878",
"(  c #7B7B7B",
")  c #7C7C7C",
"_  c #7F7F7F",
"`  c #818181",
"'  c #828282",
"]  c #838383",
"[  c #868686",
"{  c #878787",
"}  c #888888",
"|  c #8A8A8A",
" . c #8B8B8B",
".. c #8D8D8D",
"X. c #929292",
"o. c #939393",
"O. c #969696",
"+. c #979797",
"@. c #989898",
"#. c #9A9A9A",
"$. c #9B9B9B",
"%. c #9C9C9C",
"&. c #9D9D9D",
"*. c #9E9E9E",
"=. c #A0A0A0",
"-. c #A3A3A3",
";. c #A4A4A4",
":. c #A6A6A6",
">. c #ABABAB",
",. c #ACACAC",
"<. c #ADADAD",
"1. c #AFAFAF",
"2. c #B0B0B0",
"3. c #B1B1B1",
"4. c #B2B2B2",
"5. c #B3B3B3",
"6. c #B6B6B6",
"7. c #B7B7B7",
"8. c #B8B8B8",
"9. c #BABABA",
"0. c #BBBBBB",
"q. c #BCBCBC",
"w. c #BDBDBD",
"e. c #BEBEBE",
"r. c #C0C0C0",
"t. c #C1C1C1",
"y. c #C3C3C3",
"u. c #C6C6C6",
"i. c #D3D3D3",
"p. c #D4D4D4",
"a. c #D5D5D5",
"s. c #D6D6D6",
"d. c #D8D8D8",
"f. c #D9D9D9",
"g. c #DBDBDB",
"h. c #DDDDDD",
"j. c #DEDEDE",
"k. c #E1E1E1",
"l. c #E3E3E3",
"z. c #E7E7E7",
"x. c #E9E9E9",
"c. c #EBEBEB",
"v. c #ECECEC",
"b. c #EEEEEE",
"n. c #EFEFEF",
"m. c #F0F0F0",
"M. c #F2F2F2",
"N. c #F3F3F3",
"B. c #F4F4F4",
"V. c #F5F5F5",
"C. c #F6F6F6",
"Z. c #F7F7F7",
"A. c #F8F8F8",
"S. c #F9F9F9",
"D. c #FBFBFB",
"F. c #FCFCFC",
"G. c #FDFDFD",
"H. c #FEFEFE",
"J. c white",
"K. c None",
/* pixels */
"K.K.K.K.K.K.K.K.K.                                    K.K.K.K.K.K.K.K.K.",
"K.K.K.K.K.K.K.K.K.t t t t t t t t t t t t t t t t t t K.K.K.K.K.K.K.K.K.",
"K.K.K.K.K.K.K.K.j ) #.%.#.#.#.#.#.#.#.#.#.#.#.#.%.#.) j K.K.K.K.K.K.K.K.",
"K.K.K.K.K.K.K.  b 6.D.J.D.D.D.D.D.D.D.V.V.V.D.D.J.D.6.b   K.K.K.K.K.K.K.",
"K.K.K.K.K.K.K.  b 6.J.J.J.J.J.J.J.J.J.J.J.J.J.J.J.J.8.b   K.K.K.K.K.K.K.",
"K.K.K.K.K.K.K.  b 6.J.J.D.D.D.D.D.D.V.V.V.V.D.D.J.J.8.b   K.K.K.K.K.K.K.",
"K.K.K.K.K.K.K.  V 8.b.u.#.o.O.O.O.O.O.O.O.O.o.#.u.b.8.V   K.K.K.K.K.K.K.",
"K.K.K.K.K.K.K.  V e.j.' s 0 t t t t t t t t 0 f ' j.e.V   K.K.K.K.K.K.K.",
"K.K.K.K.K.K.K.  f [ -.Q b j b b c c c c b b j b Q -.[ f   K.K.K.K.K.K.K.",
"K.K.K.K.K.K.K.  = t F | 2.e.e.8.8.6.6.8.8.e.e.2.| F t =   K.K.K.K.K.K.K.",
"K.K.K.K.K.K.K.  @ 2 Z 2.V.b.f.k.D.J.J.D.k.f.b.V.2.Z 2 @   K.K.K.K.K.K.K.",
"K.K.K.K.K.K.K.  w T >.k.b.1.Q O.k.J.J.k.O.Q 1.b.k.>.T w   K.K.K.K.K.K.K.",
"K.K.K.K.K.K.K.  b 2.J.J.c.[ j T f.J.J.s.T j [ c.J.J.2.b   K.K.K.K.K.K.K.",
"K.K.K.K.K.K.K.  b 8.J.J.N.6.[ :.z.J.J.z.:.[ 6.N.J.J.8.b   K.K.K.K.K.K.K.",
"K.K.K.K.K.K.K.  b 2.D.J.J.N.c.N.D.J.J.D.N.c.N.J.J.D.2.b   K.K.K.K.K.K.K.",
"K.K.K.K.K.K.K.  t W 1.j.J.J.J.J.J.J.J.J.J.J.J.J.j.1.Q t     K.K.K.K.K.K.",
"K.K.K.K.K.K.K.  $ 2 Z 1.D.J.J.J.J.J.J.J.J.J.J.D.2.Z 2 $       K.K.K.K.K.",
"K.K.K.K.K.K.K.      7 Q 2.e.6.6.6.6.6.6.6.6.e.2.W 7 = s V V b f K.K.K.K.",
"K.K.K.K.K.K.K.K.K.  $ w j c c c c c c c c c c j 0 $ f | e.y.1.I > K.K.K.",
"K.K.K.K.K.K.K.K.K.  @ 2 t t t t t t t t t t t t ; @ b 8.J.J.c.( >   K.K.",
"K.K.K.K.K.          2 J o.%.O.O.O.O.O.O.O.O.%.o.G 2 b 8.J.J.c.( >   K.K.",
"K.K.K.K.> > 2 > =   t #.N.J.D.V.V.V.V.V.V.D.J.N.o.t j :.b.V.s.~ >   K.K.",
"K.K.K.> F ~ ' ) G 2 t #.V.J.J.J.J.J.J.J.J.J.J.D.#.t 2 G ) ' ~ F > K.K.K.",
"K.K.  > ~ s.V.b.:.h t O.V.J.J.J.J.J.J.J.J.J.J.D.%.t   = > > > > K.K.K.K.",
"K.K.  > ( c.J.J.6.c t O.V.J.J.J.J.J.J.J.J.J.J.V.%.t           K.K.K.K.K.",
"K.K.  > ( c.J.J.6.c t O.V.J.J.J.J.J.J.J.J.J.J.V.#.t   K.K.K.K.K.K.K.K.K.",
"K.K.K.> I >.y.8.' s 7 W 8.k.D.J.J.J.J.J.J.D.k.6.T 7   K.K.K.K.K.K.K.K.K.",
"K.K.K.K.h b V b s ; $ 0 F :.b.J.J.J.J.J.J.b.-.Z 7 $   K.K.K.K.K.K.K.K.K.",
"K.K.K.K.K.              ; T y.f.s.s.i.j.V.c.#.c ; @   K.K.K.K.K.K.K.K.K.",
"K.K.K.K.K.K.K.K.K.K.K.  $ t F J L J J ) u.N.f.:.J 2   K.K.K.K.K.K.K.K.K.",
"K.K.K.K.K.K.K.K.K.K.K.> > 2 7 > $     s o.k.V.f.[ w   K.K.K.K.K.K.K.K.K.",
"K.K.K.K.K.K.K.K.K.K.t T [ | ) Z >     > Z ( | ) F >   K.K.K.K.K.K.K.K.K.",
"K.K.K.K.K.K.K.K.K.  t ..f.N.f...w     @ = > 2 > = @   K.K.K.K.K.K.K.K.K.",
"K.K.K.K.K.K.K.K.K.  2 L %.1.-.~ t                   K.K.K.K.K.K.K.K.K.K.",
"K.K.K.K.K.K.K.K.K.  @ 2 t s s t K.K.K.K.K.K.K.K.K.K.K.K.K.K.K.K.K.K.K.K.",
"K.K.K.K.K.K.K.K.K.              K.K.K.K.K.K.K.K.K.K.K.K.K.K.K.K.K.K.K.K."
};
