/* XPM */
static const char *zm_lf1[] = {
/* columns rows colors chars-per-pixel */
"36 36 165 2 ",
"   c black",
".  c #010101",
"X  c #020202",
"o  c #030303",
"O  c #040404",
"+  c #050505",
"@  c #070707",
"#  c #080808",
"$  c #090909",
"%  c #0B0B0B",
"&  c #0C0C0C",
"*  c #0E0E0E",
"=  c #0F0F0F",
"-  c #101010",
";  c #141414",
":  c #151515",
">  c #161616",
",  c #171717",
"<  c #181818",
"1  c #1C1C1C",
"2  c #1D1D1D",
"3  c #1E1E1E",
"4  c #1F1F1F",
"5  c #202020",
"6  c #212121",
"7  c #232323",
"8  c #242424",
"9  c #262626",
"0  c #272727",
"q  c #282828",
"w  c #292929",
"e  c #2A2A2A",
"r  c #2B2B2B",
"t  c #2C2C2C",
"y  c #2E2E2E",
"u  c #303030",
"i  c #353535",
"p  c #383838",
"a  c #393939",
"s  c #3A3A3A",
"d  c #3B3B3B",
"f  c #3C3C3C",
"g  c #3D3D3D",
"h  c #3E3E3E",
"j  c #404040",
"k  c #414141",
"l  c #424242",
"z  c #434343",
"x  c #444444",
"c  c #454545",
"v  c #464646",
"b  c #484848",
"n  c #494949",
"m  c #4A4A4A",
"M  c #4B4B4B",
"N  c #4D4D4D",
"B  c #4E4E4E",
"V  c #4F4F4F",
"C  c #505050",
"Z  c #525252",
"A  c #545454",
"S  c #565656",
"D  c #5B5B5B",
"F  c #606060",
"G  c #636363",
"H  c #656565",
"J  c #676767",
"K  c #6A6A6A",
"L  c #6B6B6B",
"P  c #6C6C6C",
"I  c #6D6D6D",
"U  c #6F6F6F",
"Y  c #727272",
"T  c #747474",
"R  c #777777",
"E  c #787878",
"W  c #797979",
"Q  c #7A7A7A",
"!  c #7B7B7B",
"~  c #7C7C7C",
"^  c #7D7D7D",
"/  c #7E7E7E",
"(  c #808080",
")  c #818181",
"_  c #828282",
"`  c #838383",
"'  c #858585",
"]  c #868686",
"[  c #878787",
"{  c #8A8A8A",
"}  c #8C8C8C",
"|  c #8F8F8F",
" . c #909090",
".. c #919191",
"X. c #929292",
"o. c #939393",
"O. c #949494",
"+. c #959595",
"@. c #969696",
"#. c #979797",
"$. c #989898",
"%. c #999999",
"&. c #9A9A9A",
"*. c #9B9B9B",
"=. c #9C9C9C",
"-. c #9E9E9E",
";. c #9F9F9F",
":. c #A0A0A0",
">. c #A2A2A2",
",. c #A5A5A5",
"<. c #A6A6A6",
"1. c #A8A8A8",
"2. c #A9A9A9",
"3. c #ABABAB",
"4. c #ACACAC",
"5. c #ADADAD",
"6. c #AFAFAF",
"7. c #B1B1B1",
"8. c #B2B2B2",
"9. c #B3B3B3",
"0. c #B6B6B6",
"q. c #B7B7B7",
"w. c #B8B8B8",
"e. c #B9B9B9",
"r. c #BBBBBB",
"t. c #BDBDBD",
"y. c #BFBFBF",
"u. c #C0C0C0",
"i. c #C1C1C1",
"p. c #C3C3C3",
"a. c #C7C7C7",
"s. c #CBCBCB",
"d. c #CDCDCD",
"f. c #CECECE",
"g. c #D4D4D4",
"h. c #D8D8D8",
"j. c #D9D9D9",
"k. c #DADADA",
"l. c #DCDCDC",
"z. c #DEDEDE",
"x. c #DFDFDF",
"c. c #E2E2E2",
"v. c #E3E3E3",
"b. c #E4E4E4",
"n. c #E7E7E7",
"m. c #E9E9E9",
"M. c #EBEBEB",
"N. c #ECECEC",
"B. c #EDEDED",
"V. c #F0F0F0",
"C. c #F1F1F1",
"Z. c #F2F2F2",
"A. c #F4F4F4",
"S. c #F5F5F5",
"D. c #F6F6F6",
"F. c #F7F7F7",
"G. c #F8F8F8",
"H. c #F9F9F9",
"J. c #FAFAFA",
"K. c #FBFBFB",
"L. c #FCFCFC",
"P. c #FDFDFD",
"I. c #FEFEFE",
"U. c #FFFFFF",
"Y. c None",
/* pixels */
"Y.Y.Y.Y.Y.Y.Y.Y.Y.Y.Y.                                    Y.Y.Y.Y.Y.Y.Y.",
"Y.Y.Y.Y.Y.Y.Y.Y.Y.Y.Y.  O , 0 t r r r r r r r r t r 2 %   Y.Y.Y.Y.Y.Y.Y.",
"Y.Y.Y.Y.Y.Y.Y.Y.Y.Y.Y.  * M | =.*.*.*.*.*.*.*.*.=.*.P r   Y.Y.Y.Y.Y.Y.Y.",
"Y.Y.Y.Y.Y.Y.Y.Y.Y.Y.Y.  , E v.U.G.S.G.G.G.G.G.S.U.G.8.k   Y.Y.Y.Y.Y.Y.Y.",
"Y.Y.Y.Y.Y.Y.Y.Y.Y.Y.Y.  , ~ M.U.U.U.U.U.U.U.U.U.U.U.w.k   Y.Y.Y.Y.Y.Y.Y.",
"Y.Y.Y.Y.Y.Y.Y.Y.Y.Y.Y.  2 ~ v.U.G.S.G.G.S.G.G.U.U.U.w.k   Y.Y.Y.Y.Y.Y.Y.",
"Y.Y.Y.Y.Y.Y.Y.Y.Y.Y.Y.M H ~ X.*.@.@.@.@.X.:.s.S.U.U.w.k   Y.Y.Y.Y.Y.Y.Y.",
"Y.Y.Y.Y.Y.Y.Y.Y.Y.  r | p.[ p 7 r r r r 7 p @.N.U.U.w.k   Y.Y.Y.Y.Y.Y.Y.",
"Y.Y.Y.Y.Y.Y.Y.Y.Y.  t :.b.2.Z p g g g g p M E 4.p.w.` t   Y.Y.Y.Y.Y.Y.Y.",
"Y.Y.Y.Y.Y.Y.Y.Y.Y.  r =.V.b.p.w.q.q.q.q.w.4.E M p g t -   Y.Y.Y.Y.Y.Y.Y.",
"Y.Y.Y.Y.Y.Y.Y.Y.Y.  r *.V.V.j.v.S.U.U.U.U.N.@.g 7 r 2 %   Y.Y.Y.Y.Y.Y.Y.",
"Y.Y.Y.Y.Y.Y.Y.Y.Y.  t =.M.8.Y @.v.U.U.U.U.S.s.:.@.@.P 0   Y.Y.Y.Y.Y.Y.Y.",
"Y.Y.Y.Y.Y.Y.Y.Y.Y.  t :.b.| p P j.U.U.U.U.U.G.G.U.G.8.k   Y.Y.Y.Y.Y.Y.Y.",
"Y.Y.Y.Y.Y.Y.Y.Y.Y.  t =.M.y.[ <.b.U.U.U.U.U.U.U.U.U.w.k   Y.Y.Y.Y.Y.Y.Y.",
"Y.Y.Y.Y.Y.Y.Y.Y.Y.  r *.S.U.N.V.G.U.U.U.U.U.U.U.U.G.8.k   Y.Y.Y.Y.Y.Y.Y.",
"Y.Y.Y.Y.Y.Y.Y.Y.Y.  r *.S.U.U.U.U.U.U.U.U.U.U.U.j.2.E i   Y.Y.Y.Y.Y.Y.Y.",
"Y.Y.Y.Y.Y.Y.Y.Y.Y.  r *.S.U.U.U.U.U.U.U.U.U.U.G.2.V 7 Y.Y.Y.Y.Y.Y.Y.Y.Y.",
"Y.Y.Y.Y.Y.Y.Y.Y.Y.  r ~ q.p.w.w.q.q.q.q.q.q.y.q.~ r   Y.Y.Y.Y.Y.Y.Y.Y.Y.",
"Y.Y.Y.Y.Y.Y.Y.Y.Y.Y.Y.p v v v k g g g g g g k k p Y.Y.Y.Y.Y.Y.Y.Y.Y.Y.Y.",
"Y.Y.Y.Y.Y.Y.Y.Y.Y.Y.Y.        - 0 t r r r 0 , O   Y.Y.Y.Y.Y.Y.Y.Y.Y.Y.Y.",
"Y.Y.Y.Y.Y.Y.Y.Y.Y.Y.Y.      O g [ :.=.*.=.{ M *   Y.Y.Y.Y.Y.Y.Y.Y.Y.Y.Y.",
"Y.Y.Y.Y.Y.Y.Y.Y.Y.Y.Y., , - 2 G y.N.S.G.U.v.R ,   Y.Y.Y.Y.Y.Y.Y.Y.Y.Y.Y.",
"Y.Y.Y.Y.Y.Y.Y.Y.Y.Y.0 G ~ ` ` ` [ 2.x.U.U.M.E ,   Y.Y.Y.Y.Y.Y.Y.Y.Y.Y.Y.",
"Y.Y.Y.Y.Y.Y.Y.Y.Y.  r X.v.G.v.X.p V y.U.U.M.E ,   Y.Y.Y.Y.Y.Y.Y.Y.Y.Y.Y.",
"Y.Y.Y.Y.Y.Y.Y.Y.Y.  r *.G.U.S.@.r g q.U.U.M.E ,   Y.Y.Y.Y.Y.Y.Y.Y.Y.Y.Y.",
"Y.Y.Y.Y.Y.Y.Y.Y.Y.  r *.G.U.S.@.r g q.U.U.M.E ,   Y.Y.Y.Y.Y.Y.Y.Y.Y.Y.Y.",
"Y.Y.Y.Y.Y.Y.Y.Y.Y.  r ~ q.p.8.[ S R d.S.x.8.H , Y.Y.Y.Y.Y.Y.Y.Y.Y.Y.Y.Y.",
"Y.Y.Y.Y.Y.Y.Y.Y.Y.Y.Y.p k g k L <.g.S.x.| M t Y.Y.Y.Y.Y.Y.Y.Y.Y.Y.Y.Y.Y.",
"Y.Y.Y.Y.Y.Y.Y.Y.Y.Y.Y.  O * t ~ x.U.M.4.V O   Y.Y.Y.Y.Y.Y.Y.Y.Y.Y.Y.Y.Y.",
"Y.Y.Y.Y.Y.Y.Y.Y.Y.Y.Y.  * M @.d.V.j.| V 7       Y.Y.Y.Y.Y.Y.Y.Y.Y.Y.Y.Y.",
"Y.Y.Y.Y.Y.Y.Y.Y.Y.Y.Y.  , P d.V.M.4.k % % , %     Y.Y.Y.Y.Y.Y.Y.Y.Y.Y.Y.",
"Y.Y.Y.Y.Y.Y.Y.Y.Y.Y.Y.  * k E { ` D 2 , S E v *   Y.Y.Y.Y.Y.Y.Y.Y.Y.Y.Y.",
"Y.Y.Y.Y.Y.Y.Y.Y.Y.Y.Y.    % , < , *   0 X.a.R ,   Y.Y.Y.Y.Y.Y.Y.Y.Y.Y.Y.",
"Y.Y.Y.Y.Y.Y.Y.Y.Y.Y.Y.Y.              2 L | S *   Y.Y.Y.Y.Y.Y.Y.Y.Y.Y.Y.",
"Y.Y.Y.Y.Y.Y.Y.Y.Y.Y.Y.Y.Y.Y.Y.Y.      % 2 0 , O   Y.Y.Y.Y.Y.Y.Y.Y.Y.Y.Y.",
"Y.Y.Y.Y.Y.Y.Y.Y.Y.Y.Y.Y.Y.Y.Y.Y.                  Y.Y.Y.Y.Y.Y.Y.Y.Y.Y.Y."
};
