/* XPM */
static const char *zm_rt1[] = {
/* columns rows colors chars-per-pixel */
"36 36 165 2 ",
"   c black",
".  c #010101",
"X  c #020202",
"o  c #030303",
"O  c #040404",
"+  c #050505",
"@  c #070707",
"#  c #080808",
"$  c #090909",
"%  c #0B0B0B",
"&  c #0C0C0C",
"*  c #0E0E0E",
"=  c #0F0F0F",
"-  c #101010",
";  c #141414",
":  c #151515",
">  c #161616",
",  c #171717",
"<  c #181818",
"1  c #1C1C1C",
"2  c #1D1D1D",
"3  c #1E1E1E",
"4  c #1F1F1F",
"5  c #202020",
"6  c #212121",
"7  c #232323",
"8  c #242424",
"9  c #262626",
"0  c #272727",
"q  c #282828",
"w  c #292929",
"e  c #2A2A2A",
"r  c #2B2B2B",
"t  c #2C2C2C",
"y  c #2E2E2E",
"u  c #303030",
"i  c #353535",
"p  c #383838",
"a  c #393939",
"s  c #3A3A3A",
"d  c #3B3B3B",
"f  c #3C3C3C",
"g  c #3D3D3D",
"h  c #3E3E3E",
"j  c #404040",
"k  c #414141",
"l  c #424242",
"z  c #434343",
"x  c #444444",
"c  c #454545",
"v  c #464646",
"b  c #484848",
"n  c #494949",
"m  c #4A4A4A",
"M  c #4B4B4B",
"N  c #4D4D4D",
"B  c #4E4E4E",
"V  c #4F4F4F",
"C  c #505050",
"Z  c #525252",
"A  c #545454",
"S  c #565656",
"D  c #5B5B5B",
"F  c #606060",
"G  c #636363",
"H  c #656565",
"J  c #676767",
"K  c #6A6A6A",
"L  c #6B6B6B",
"P  c #6C6C6C",
"I  c #6D6D6D",
"U  c #6F6F6F",
"Y  c #727272",
"T  c #747474",
"R  c #777777",
"E  c #787878",
"W  c #797979",
"Q  c #7A7A7A",
"!  c #7B7B7B",
"~  c #7C7C7C",
"^  c #7D7D7D",
"/  c #7E7E7E",
"(  c #808080",
")  c #818181",
"_  c #828282",
"`  c #838383",
"'  c #858585",
"]  c #868686",
"[  c #878787",
"{  c #8A8A8A",
"}  c #8C8C8C",
"|  c #8F8F8F",
" . c #909090",
".. c #919191",
"X. c #929292",
"o. c #939393",
"O. c #949494",
"+. c #959595",
"@. c #969696",
"#. c #979797",
"$. c #989898",
"%. c #999999",
"&. c #9A9A9A",
"*. c #9B9B9B",
"=. c #9C9C9C",
"-. c #9E9E9E",
";. c #9F9F9F",
":. c #A0A0A0",
">. c #A2A2A2",
",. c #A5A5A5",
"<. c #A6A6A6",
"1. c #A8A8A8",
"2. c #A9A9A9",
"3. c #ABABAB",
"4. c #ACACAC",
"5. c #ADADAD",
"6. c #AFAFAF",
"7. c #B1B1B1",
"8. c #B2B2B2",
"9. c #B3B3B3",
"0. c #B6B6B6",
"q. c #B7B7B7",
"w. c #B8B8B8",
"e. c #B9B9B9",
"r. c #BBBBBB",
"t. c #BDBDBD",
"y. c #BFBFBF",
"u. c #C0C0C0",
"i. c #C1C1C1",
"p. c #C3C3C3",
"a. c #C7C7C7",
"s. c #CBCBCB",
"d. c #CDCDCD",
"f. c #CECECE",
"g. c #D4D4D4",
"h. c #D8D8D8",
"j. c #D9D9D9",
"k. c #DADADA",
"l. c #DCDCDC",
"z. c #DEDEDE",
"x. c #DFDFDF",
"c. c #E2E2E2",
"v. c #E3E3E3",
"b. c #E4E4E4",
"n. c #E7E7E7",
"m. c #E9E9E9",
"M. c #EBEBEB",
"N. c #ECECEC",
"B. c #EDEDED",
"V. c #F0F0F0",
"C. c #F1F1F1",
"Z. c #F2F2F2",
"A. c #F4F4F4",
"S. c #F5F5F5",
"D. c #F6F6F6",
"F. c #F7F7F7",
"G. c #F8F8F8",
"H. c #F9F9F9",
"J. c #FAFAFA",
"K. c #FBFBFB",
"L. c #FCFCFC",
"P. c #FDFDFD",
"I. c #FEFEFE",
"U. c #FFFFFF",
"Y. c None",
/* pixels */
"Y.Y.Y.Y.Y.Y.Y.                                    Y.Y.Y.Y.Y.Y.Y.Y.Y.Y.Y.",
"Y.Y.Y.Y.Y.Y.Y.  % 3 q t q q q q q q q q t 0 , O   Y.Y.Y.Y.Y.Y.Y.Y.Y.Y.Y.",
"Y.Y.Y.Y.Y.Y.Y.  q I *.-.*.*.*.*.*.*.*.*.-.} b *   Y.Y.Y.Y.Y.Y.Y.Y.Y.Y.Y.",
"Y.Y.Y.Y.Y.Y.Y.  k 8.J.U.J.J.J.J.J.J.J.J.U.v.R ,   Y.Y.Y.Y.Y.Y.Y.Y.Y.Y.Y.",
"Y.Y.Y.Y.Y.Y.Y.  k q.U.U.U.U.U.U.U.U.U.U.U.m.W ,   Y.Y.Y.Y.Y.Y.Y.Y.Y.Y.Y.",
"Y.Y.Y.Y.Y.Y.Y.  k w.U.U.U.J.J.D.D.J.D.J.U.v.^ 3   Y.Y.Y.Y.Y.Y.Y.Y.Y.Y.Y.",
"Y.Y.Y.Y.Y.Y.Y.  k q.U.U.D.s.:.o.#.#.#.#.*.o.^ H b Y.Y.Y.Y.Y.Y.Y.Y.Y.Y.Y.",
"Y.Y.Y.Y.Y.Y.Y.  k q.U.U.N.#.g 7 q q q 0 7 d ' u.} q   Y.Y.Y.Y.Y.Y.Y.Y.Y.",
"Y.Y.Y.Y.Y.Y.Y.  u ` w.u.4.W b d g g g g d Z 3.n.:.t   Y.Y.Y.Y.Y.Y.Y.Y.Y.",
"Y.Y.Y.Y.Y.Y.Y.  - t g d b W 4.w.q.q.q.q.w.u.n.V.-.q   Y.Y.Y.Y.Y.Y.Y.Y.Y.",
"Y.Y.Y.Y.Y.Y.Y.  % 3 q 7 g #.N.U.U.U.U.J.v.k.V.V.*.q   Y.Y.Y.Y.Y.Y.Y.Y.Y.",
"Y.Y.Y.Y.Y.Y.Y.  0 I #.#.:.s.D.U.U.U.U.v.#.Y 8.m.-.t   Y.Y.Y.Y.Y.Y.Y.Y.Y.",
"Y.Y.Y.Y.Y.Y.Y.  k 8.J.U.J.J.U.U.U.U.U.g.I d o.v.:.t   Y.Y.Y.Y.Y.Y.Y.Y.Y.",
"Y.Y.Y.Y.Y.Y.Y.  k w.U.U.U.U.U.U.U.U.U.n.<.' y.m.-.t   Y.Y.Y.Y.Y.Y.Y.Y.Y.",
"Y.Y.Y.Y.Y.Y.Y.  k 8.J.U.U.U.U.U.U.U.U.J.V.N.U.D.*.q   Y.Y.Y.Y.Y.Y.Y.Y.Y.",
"Y.Y.Y.Y.Y.Y.Y.  i W 3.k.U.U.U.U.U.U.U.U.U.U.U.D.*.q   Y.Y.Y.Y.Y.Y.Y.Y.Y.",
"Y.Y.Y.Y.Y.Y.Y.Y.Y.7 V 3.J.U.U.U.U.U.U.U.U.U.U.D.*.q   Y.Y.Y.Y.Y.Y.Y.Y.Y.",
"Y.Y.Y.Y.Y.Y.Y.Y.Y.  q ^ q.y.q.q.q.q.q.q.w.w.u.q.^ q   Y.Y.Y.Y.Y.Y.Y.Y.Y.",
"Y.Y.Y.Y.Y.Y.Y.Y.Y.Y.Y.d k k g g g g g g k x x x d Y.Y.Y.Y.Y.Y.Y.Y.Y.Y.Y.",
"Y.Y.Y.Y.Y.Y.Y.Y.Y.Y.Y.  O , 0 q q q t 0 -         Y.Y.Y.Y.Y.Y.Y.Y.Y.Y.Y.",
"Y.Y.Y.Y.Y.Y.Y.Y.Y.Y.Y.  * b { -.*.-.:.' g O       Y.Y.Y.Y.Y.Y.Y.Y.Y.Y.Y.",
"Y.Y.Y.Y.Y.Y.Y.Y.Y.Y.Y.  , R v.U.J.D.N.y.G 3 * , , Y.Y.Y.Y.Y.Y.Y.Y.Y.Y.Y.",
"Y.Y.Y.Y.Y.Y.Y.Y.Y.Y.Y.  , W m.U.U.x.3.' ^ ` ` ^ G 0 Y.Y.Y.Y.Y.Y.Y.Y.Y.Y.",
"Y.Y.Y.Y.Y.Y.Y.Y.Y.Y.Y.  , W m.U.U.y.V d o.v.D.v.o.q   Y.Y.Y.Y.Y.Y.Y.Y.Y.",
"Y.Y.Y.Y.Y.Y.Y.Y.Y.Y.Y.  , W m.U.U.q.g q #.J.U.J.*.q   Y.Y.Y.Y.Y.Y.Y.Y.Y.",
"Y.Y.Y.Y.Y.Y.Y.Y.Y.Y.Y.  , W m.U.U.q.g q #.J.U.J.*.q   Y.Y.Y.Y.Y.Y.Y.Y.Y.",
"Y.Y.Y.Y.Y.Y.Y.Y.Y.Y.Y.Y., H 8.x.D.d.R S ' q.u.q.^ q   Y.Y.Y.Y.Y.Y.Y.Y.Y.",
"Y.Y.Y.Y.Y.Y.Y.Y.Y.Y.Y.Y.Y.t b } x.D.g.<.L k g k d Y.Y.Y.Y.Y.Y.Y.Y.Y.Y.Y.",
"Y.Y.Y.Y.Y.Y.Y.Y.Y.Y.Y.Y.Y.  O V 4.m.U.x.^ t *     Y.Y.Y.Y.Y.Y.Y.Y.Y.Y.Y.",
"Y.Y.Y.Y.Y.Y.Y.Y.Y.Y.Y.Y.      7 V } k.V.d.#.b *   Y.Y.Y.Y.Y.Y.Y.Y.Y.Y.Y.",
"Y.Y.Y.Y.Y.Y.Y.Y.Y.Y.Y.    % , % % x 4.m.V.d.I ,   Y.Y.Y.Y.Y.Y.Y.Y.Y.Y.Y.",
"Y.Y.Y.Y.Y.Y.Y.Y.Y.Y.Y.  * x W S , 3 D ` { W k *   Y.Y.Y.Y.Y.Y.Y.Y.Y.Y.Y.",
"Y.Y.Y.Y.Y.Y.Y.Y.Y.Y.Y.  , R a.o.0   * , < , %     Y.Y.Y.Y.Y.Y.Y.Y.Y.Y.Y.",
"Y.Y.Y.Y.Y.Y.Y.Y.Y.Y.Y.  * S } L 3               Y.Y.Y.Y.Y.Y.Y.Y.Y.Y.Y.Y.",
"Y.Y.Y.Y.Y.Y.Y.Y.Y.Y.Y.  O , 0 3 %       Y.Y.Y.Y.Y.Y.Y.Y.Y.Y.Y.Y.Y.Y.Y.Y.",
"Y.Y.Y.Y.Y.Y.Y.Y.Y.Y.Y.                  Y.Y.Y.Y.Y.Y.Y.Y.Y.Y.Y.Y.Y.Y.Y.Y."
};
