/* XPM */
static const char *zm_rt2[] = {
/* columns rows colors chars-per-pixel */
"36 36 159 2 ",
"   c black",
".  c #020202",
"X  c #040404",
"o  c #060606",
"O  c #080808",
"+  c #0B0B0B",
"@  c #0C0C0C",
"#  c #0D0D0D",
"$  c #0E0E0E",
"%  c #0F0F0F",
"&  c #101010",
"*  c #111111",
"=  c #141414",
"-  c #151515",
";  c #161616",
":  c #171717",
">  c #181818",
",  c #191919",
"<  c #1B1B1B",
"1  c #1C1C1C",
"2  c #1D1D1D",
"3  c #1E1E1E",
"4  c #1F1F1F",
"5  c #202020",
"6  c #212121",
"7  c #232323",
"8  c #242424",
"9  c #252525",
"0  c #262626",
"q  c #272727",
"w  c #282828",
"e  c #292929",
"r  c #2A2A2A",
"t  c #2B2B2B",
"y  c #2C2C2C",
"u  c #2D2D2D",
"i  c #2F2F2F",
"p  c #303030",
"a  c #353535",
"s  c #383838",
"d  c #393939",
"f  c #3A3A3A",
"g  c #3B3B3B",
"h  c #3C3C3C",
"j  c #3D3D3D",
"k  c #3E3E3E",
"l  c #404040",
"z  c #414141",
"x  c #424242",
"c  c #434343",
"v  c #444444",
"b  c #454545",
"n  c #464646",
"m  c #484848",
"M  c #4A4A4A",
"N  c #4B4B4B",
"B  c #4E4E4E",
"V  c #4F4F4F",
"C  c #525252",
"Z  c #535353",
"A  c #555555",
"S  c #595959",
"D  c #5B5B5B",
"F  c #616161",
"G  c #626262",
"H  c #636363",
"J  c #656565",
"K  c #676767",
"L  c #696969",
"P  c #6C6C6C",
"I  c #6D6D6D",
"U  c #6F6F6F",
"Y  c #727272",
"T  c #747474",
"R  c #757575",
"E  c #777777",
"W  c #787878",
"Q  c #797979",
"!  c #7A7A7A",
"~  c #7B7B7B",
"^  c #7C7C7C",
"/  c #7D7D7D",
"(  c #7E7E7E",
")  c #7F7F7F",
"_  c #828282",
"`  c #838383",
"'  c #858585",
"]  c #878787",
"[  c #888888",
"{  c #898989",
"}  c #8A8A8A",
"|  c #8C8C8C",
" . c #8D8D8D",
".. c #8F8F8F",
"X. c #929292",
"o. c #939393",
"O. c #949494",
"+. c #969696",
"@. c #979797",
"#. c #999999",
"$. c #9A9A9A",
"%. c #9B9B9B",
"&. c #9C9C9C",
"*. c #9E9E9E",
"=. c #9F9F9F",
"-. c #A0A0A0",
";. c #A2A2A2",
":. c #A5A5A5",
">. c #A6A6A6",
",. c #A8A8A8",
"<. c #A9A9A9",
"1. c #ABABAB",
"2. c #ACACAC",
"3. c #ADADAD",
"4. c #B2B2B2",
"5. c #B3B3B3",
"6. c #B6B6B6",
"7. c #B7B7B7",
"8. c #B8B8B8",
"9. c #BABABA",
"0. c #BBBBBB",
"q. c #BDBDBD",
"w. c #BEBEBE",
"e. c #BFBFBF",
"r. c #C0C0C0",
"t. c #C1C1C1",
"y. c #C2C2C2",
"u. c #C3C3C3",
"i. c #C6C6C6",
"p. c #C7C7C7",
"a. c #CBCBCB",
"s. c #CFCFCF",
"d. c #D4D4D4",
"f. c #D8D8D8",
"g. c #D9D9D9",
"h. c #DADADA",
"j. c #E2E2E2",
"k. c #E3E3E3",
"l. c #E4E4E4",
"z. c #E7E7E7",
"x. c #E9E9E9",
"c. c #EBEBEB",
"v. c #ECECEC",
"b. c #EEEEEE",
"n. c #F0F0F0",
"m. c #F1F1F1",
"M. c #F2F2F2",
"N. c #F4F4F4",
"B. c #F5F5F5",
"V. c #F6F6F6",
"C. c #F7F7F7",
"Z. c #F8F8F8",
"A. c #F9F9F9",
"S. c #FAFAFA",
"D. c #FBFBFB",
"F. c #FCFCFC",
"G. c #FEFEFE",
"H. c #FFFFFF",
"J. c None",
/* pixels */
"J.J.J.J.J.J.J.                                    J.J.J.J.J.J.J.J.J.J.J.",
"J.J.J.J.J.J.J.  + 3 w y w w w w w w w w y q : X   J.J.J.J.J.J.J.J.J.J.J.",
"J.J.J.J.J.J.J.  w I %.*.%.%.%.%.%.%.%.%.*.| m #   J.J.J.J.J.J.J.J.J.J.J.",
"J.J.J.J.J.J.J.  z 4.S.H.V.S.S.S.S.S.S.S.H.k.E :   J.J.J.J.J.J.J.J.J.J.J.",
"J.J.J.J.J.J.J.  z 7.H.H.H.H.H.H.H.H.H.H.H.x.Q :   J.J.J.J.J.J.J.J.J.J.J.",
"J.J.J.J.J.J.J.  z 8.H.H.H.S.S.V.V.S.V.S.H.k./ 3   J.J.J.J.J.J.J.J.J.J.J.",
"J.J.J.J.J.J.J.  z 7.H.H.V.a.-.o.@.@.@.@.%.o./ J m J.J.J.J.J.J.J.J.J.J.J.",
"J.J.J.J.J.J.J.  z 7.H.H.v.@.j 7 w w w q 7 g ' r.| w   J.J.J.J.J.J.J.J.J.",
"J.J.J.J.J.J.J.  p ` 8.r.2.Q m g j j j j g C 1.z.-.y   J.J.J.J.J.J.J.J.J.",
"J.J.J.J.J.J.J.  & y j g m Q 2.8.7.7.7.7.8.r.z.n.*.w   J.J.J.J.J.J.J.J.J.",
"J.J.J.J.J.J.J.  + 3 w 7 j @.v.H.H.H.H.S.k.h.n.n.%.w   J.J.J.J.J.J.J.J.J.",
"J.J.J.J.J.J.J.  q I @.@.-.a.V.H.H.H.H.k.@.Y 4.x.*.y   J.J.J.J.J.J.J.J.J.",
"J.J.J.J.J.J.J.  z 4.S.H.S.S.H.H.H.H.H.d.I g o.k.-.y   J.J.J.J.J.J.J.J.J.",
"J.J.J.J.J.J.J.  z 8.H.H.H.H.H.H.H.H.H.z.>.' e.x.*.y   J.J.J.J.J.J.J.J.J.",
"J.J.J.J.J.J.J.  z 4.S.H.H.H.H.H.H.H.H.S.n.v.H.V.%.w   J.J.J.J.J.J.J.J.J.",
"J.J.J.J.J.J.J.  a Q 1.h.H.H.H.H.H.H.H.H.H.H.H.V.%.w   J.J.J.J.J.J.J.J.J.",
"J.J.J.J.J.J.J.J.J.7 B 1.S.H.H.H.H.H.H.H.H.H.H.V.%.w   J.J.J.J.J.J.J.J.J.",
"J.J.J.J.J.J.J.J.J.  w / 7.e.7.8.8.8.8.8.8.7.e.7./ w   J.J.J.J.J.J.J.J.J.",
"J.J.J.J.J.J.J.J.J.J.J.g z z j z z b b z z j z z g J.J.J.J.J.J.J.J.J.J.J.",
"J.J.J.J.J.J.J.J.J.J.J.  X : q 3 +     + 3 q : X   J.J.J.J.J.J.J.J.J.J.J.",
"J.J.J.J.J.J.J.J.J.J.J.  # C | L 3     3 L | C #   J.J.J.J.J.J.J.J.J.J.J.",
"J.J.J.J.J.J.J.J.J.J.J.  : E i.*.g # # g *.i.E :   J.J.J.J.J.J.J.J.J.J.J.",
"J.J.J.J.J.J.J.J.J.J.J.  # z / } ` / / ` } / z #   J.J.J.J.J.J.J.J.J.J.J.",
"J.J.J.J.J.J.J.J.J.J.J.    X < J i.n.n.i.L < X     J.J.J.J.J.J.J.J.J.J.J.",
"J.J.J.J.J.J.J.J.J.J.J.      + G d.H.H.d.G +       J.J.J.J.J.J.J.J.J.J.J.",
"J.J.J.J.J.J.J.J.J.J.J.      + G d.H.H.d.G +       J.J.J.J.J.J.J.J.J.J.J.",
"J.J.J.J.J.J.J.J.J.J.J.J.    X b %.r.r.1.E b 3 X   J.J.J.J.J.J.J.J.J.J.J.",
"J.J.J.J.J.J.J.J.J.J.J.J.J.    < g b z S %.2.G &   J.J.J.J.J.J.J.J.J.J.J.",
"J.J.J.J.J.J.J.J.J.J.J.J.J.            q } e.Q :   J.J.J.J.J.J.J.J.J.J.J.",
"J.J.J.J.J.J.J.J.J.J.J.J.J.            & j S m J.J.J.J.J.J.J.J.J.J.J.J.J.",
"J.J.J.J.J.J.J.J.J.J.J.J.J.J.      X & < 3 3 < J.J.J.J.J.J.J.J.J.J.J.J.J.",
"J.J.J.J.J.J.J.J.J.J.J.J.J.J.J.    q G } } Q A J.J.J.J.J.J.J.J.J.J.J.J.J.",
"J.J.J.J.J.J.J.J.J.J.J.J.J.J.J.J.  g -.z.v.s.Y :   J.J.J.J.J.J.J.J.J.J.J.",
"J.J.J.J.J.J.J.J.J.J.J.J.J.J.J.J.  w E >.2.@.B #   J.J.J.J.J.J.J.J.J.J.J.",
"J.J.J.J.J.J.J.J.J.J.J.J.J.J.J.J.  # 7 y y w : X   J.J.J.J.J.J.J.J.J.J.J.",
"J.J.J.J.J.J.J.J.J.J.J.J.J.J.J.J.                  J.J.J.J.J.J.J.J.J.J.J."
};
