/* XPM */
static const char *zm_up1[] = {
/* columns rows colors chars-per-pixel */
"36 36 150 2 ",
"   c black",
".  c #010101",
"X  c #030303",
"o  c #040404",
"O  c #050505",
"+  c #060606",
"@  c #070707",
"#  c #080808",
"$  c #090909",
"%  c #0A0A0A",
"&  c #0C0C0C",
"*  c #0D0D0D",
"=  c #0E0E0E",
"-  c #101010",
";  c #121212",
":  c #131313",
">  c #141414",
",  c #151515",
"<  c #161616",
"1  c #171717",
"2  c #181818",
"3  c #191919",
"4  c gray10",
"5  c #1B1B1B",
"6  c #1D1D1D",
"7  c #1E1E1E",
"8  c #1F1F1F",
"9  c #212121",
"0  c #222222",
"q  c #252525",
"w  c #262626",
"e  c #272727",
"r  c #282828",
"t  c #292929",
"y  c #2A2A2A",
"u  c #2B2B2B",
"i  c #2C2C2C",
"p  c #2D2D2D",
"a  c #2E2E2E",
"s  c #2F2F2F",
"d  c #303030",
"f  c #323232",
"g  c #343434",
"h  c #373737",
"j  c #383838",
"k  c #393939",
"l  c #3B3B3B",
"z  c #3C3C3C",
"x  c #3D3D3D",
"c  c #3F3F3F",
"v  c #404040",
"b  c #414141",
"n  c #424242",
"m  c #434343",
"M  c #444444",
"N  c #454545",
"B  c #464646",
"V  c #4C4C4C",
"C  c #4D4D4D",
"Z  c #4F4F4F",
"A  c #505050",
"S  c #515151",
"D  c #525252",
"F  c #565656",
"G  c #5C5C5C",
"H  c #5D5D5D",
"J  c #5F5F5F",
"K  c #606060",
"L  c #626262",
"P  c #676767",
"I  c #686868",
"U  c #696969",
"Y  c #6A6A6A",
"T  c #6B6B6B",
"R  c #6C6C6C",
"E  c #6F6F6F",
"W  c #707070",
"Q  c #767676",
"!  c #777777",
"~  c #787878",
"^  c #7B7B7B",
"/  c #7C7C7C",
"(  c #7F7F7F",
")  c #818181",
"_  c #828282",
"`  c #838383",
"'  c #868686",
"]  c #878787",
"[  c #888888",
"{  c #8A8A8A",
"}  c #8B8B8B",
"|  c #8D8D8D",
" . c #929292",
".. c #939393",
"X. c #979797",
"o. c #989898",
"O. c #9A9A9A",
"+. c #9B9B9B",
"@. c #9C9C9C",
"#. c #9D9D9D",
"$. c #9E9E9E",
"%. c #A0A0A0",
"&. c #A3A3A3",
"*. c #A4A4A4",
"=. c #A6A6A6",
"-. c #A9A9A9",
";. c #ABABAB",
":. c #ACACAC",
">. c #AFAFAF",
",. c #B1B1B1",
"<. c #B2B2B2",
"1. c #B3B3B3",
"2. c #B6B6B6",
"3. c #B7B7B7",
"4. c #B8B8B8",
"5. c #BABABA",
"6. c #BBBBBB",
"7. c #BCBCBC",
"8. c #BDBDBD",
"9. c #C0C0C0",
"0. c #C1C1C1",
"q. c #C3C3C3",
"w. c #C6C6C6",
"e. c #D3D3D3",
"r. c #D4D4D4",
"t. c #D5D5D5",
"y. c #D6D6D6",
"u. c #DBDBDB",
"i. c #DCDCDC",
"p. c #DDDDDD",
"a. c #DEDEDE",
"s. c #E1E1E1",
"d. c #E3E3E3",
"f. c #E9E9E9",
"g. c #EBEBEB",
"h. c #ECECEC",
"j. c #EEEEEE",
"k. c #EFEFEF",
"l. c #F0F0F0",
"z. c #F2F2F2",
"x. c #F4F4F4",
"c. c #F6F6F6",
"v. c #F7F7F7",
"b. c #F8F8F8",
"n. c #F9F9F9",
"m. c #FAFAFA",
"M. c #FCFCFC",
"N. c #FEFEFE",
"B. c #FFFFFF",
"V. c None",
/* pixels */
"V.V.V.V.V.V.V.V.V.                                    V.V.V.V.V.V.V.V.V.",
"V.V.V.V.V.V.V.V.V.t t t t t t t t t t t t t t t t t t V.V.V.V.V.V.V.V.V.",
"V.V.V.V.V.V.V.V.k / O.@.O.O.O.O.O.O.O.O.O.O.O.O.@.O./ k V.V.V.V.V.V.V.V.",
"V.V.V.V.V.V.V.  v 2.m.B.m.m.m.m.m.m.m.m.v.v.v.v.B.m.2.v   V.V.V.V.V.V.V.",
"V.V.V.V.V.V.V.  v 2.B.B.B.B.B.B.B.B.B.B.B.B.B.B.B.B.4.v   V.V.V.V.V.V.V.",
"V.V.V.V.V.V.V.  v 4.B.B.m.v.m.v.v.m.v.v.v.v.v.m.B.B.4.v   V.V.V.V.V.V.V.",
"V.V.V.V.V.V.V.  B 4.k.w.O...X.X.X.X.X.X.X.X...O.w.k.4.B   V.V.V.V.V.V.V.",
"V.V.V.V.V.V.V.  B 8.i._ f 0 t t t t t t t t 0 f _ i.8.B   V.V.V.V.V.V.V.",
"V.V.V.V.V.V.V.  f ' &.W v k x x x x x x x x k v W &.' f   V.V.V.V.V.V.V.",
"V.V.V.V.V.V.V.  = t D { <.4.2.2.2.2.2.2.2.2.4.<.{ D t =   V.V.V.V.V.V.V.",
"V.V.V.V.V.V.V.  @ 2 C >.m.B.B.B.B.B.B.B.B.B.B.m.>.C 2 @   V.V.V.V.V.V.V.",
"V.V.V.V.V.V.V.  w Y -.i.B.B.B.B.B.B.B.B.B.B.B.B.i.-.Y w   V.V.V.V.V.V.V.",
"V.V.V.V.V.V.V.  v <.m.B.B.B.B.B.B.B.B.B.B.B.B.B.B.m.<.v   V.V.V.V.V.V.V.",
"V.V.V.V.V.V.V.  v 4.B.B.B.B.B.B.B.B.B.B.B.B.B.B.B.B.4.v   V.V.V.V.V.V.V.",
"V.V.V.V.V.V.V.  v <.m.B.B.B.B.B.B.B.B.B.B.B.B.B.B.m.<.v   V.V.V.V.V.V.V.",
"V.V.V.V.V.V.V.  t E >.i.B.B.B.B.B.B.B.B.B.B.B.B.i.>.W t     V.V.V.V.V.V.",
"V.V.V.V.V.V.V.  $ 2 C >.m.B.B.B.B.B.B.B.B.B.B.m.<.C 2 $       V.V.V.V.V.",
"V.V.V.V.V.V.V.      8 W <.8.2.2.2.2.2.2.2.2.8.<.E 8 = s B B v f V.V.V.V.",
"V.V.V.V.V.V.V.V.V.  $ w k x x x x x x x x x x k 0 $ f { 8.q.>.P , V.V.V.",
"V.V.V.V.V.V.V.V.V.  @ 2 t t t t t t t t t t t t ; @ v 4.B.B.f.^ ,   V.V.",
"V.V.V.V.V.          2 H ..@.X.X.X.X.X.X.X.X.@...F 2 v 4.B.B.f.^ ,   V.V.",
"V.V.V.V., , 2 , =   t O.l.B.m.v.v.v.v.v.v.m.B.l...t k =.k.v.t.Q ,   V.V.",
"V.V.V., D Q _ / F 2 t O.v.B.B.B.B.B.B.B.B.B.B.v.O.t 2 F / _ Q D , V.V.V.",
"V.V.  , Q t.v.k.=.h t X.v.B.B.B.B.B.B.B.B.B.B.v.@.t   = , , , , V.V.V.V.",
"V.V.  , ^ f.B.B.2.x t X.v.B.B.B.B.B.B.B.B.B.B.v.@.t           V.V.V.V.V.",
"V.V.  , ^ f.B.B.2.x t X.v.B.B.B.B.B.B.B.B.B.B.v.O.t   V.V.V.V.V.V.V.V.V.",
"V.V.V., P >.q.4._ s 8 E 4.s.m.B.B.B.B.B.B.m.s.2.Y 8   V.V.V.V.V.V.V.V.V.",
"V.V.V.V.h v B v s ; $ 0 D =.k.B.B.B.B.B.B.k.&.C 8 $   V.V.V.V.V.V.V.V.V.",
"V.V.V.V.V.              ; Y q.u.t.t.e.i.v.f.O.x ; @   V.V.V.V.V.V.V.V.V.",
"V.V.V.V.V.V.V.V.V.V.V.  $ t D H K H H / w.l.u.&.H 2   V.V.V.V.V.V.V.V.V.",
"V.V.V.V.V.V.V.V.V.V.V., , 2 8 , =     s ..s.v.u.' w   V.V.V.V.V.V.V.V.V.",
"V.V.V.V.V.V.V.V.V.V.t Y ' { / C ,     , C ^ { / D ,   V.V.V.V.V.V.V.V.V.",
"V.V.V.V.V.V.V.V.V.  t | u.l.u.| w     @ = , 2 , = @   V.V.V.V.V.V.V.V.V.",
"V.V.V.V.V.V.V.V.V.  2 K @.>.&.Q t                   V.V.V.V.V.V.V.V.V.V.",
"V.V.V.V.V.V.V.V.V.  @ 2 t s s t V.V.V.V.V.V.V.V.V.V.V.V.V.V.V.V.V.V.V.V.",
"V.V.V.V.V.V.V.V.V.              V.V.V.V.V.V.V.V.V.V.V.V.V.V.V.V.V.V.V.V."
};
