/* XPM */
static char *exit[] = {
/* columns rows colors chars-per-pixel */
"16 16 30 1 ",
"  c #3A3A3A",
". c gray27",
"X c #535353",
"o c #555555",
"O c #585858",
"+ c #606060",
"@ c #626262",
"# c gray42",
"$ c #6C6C6C",
"% c #727272",
"& c #767676",
"* c gray47",
"= c #7E7E7E",
"- c gray51",
"; c #868686",
": c #898989",
"> c #8D8D8D",
", c #929292",
"< c gray58",
"1 c #9B9B9B",
"2 c #9F9F9F",
"3 c #A2A2A2",
"4 c gray66",
"5 c #ACACAC",
"6 c #B6B6B6",
"7 c #B9B9B9",
"8 c #BBBBBB",
"9 c #C1C1C1",
"0 c #CBCBCB",
"q c None",
/* pixels */
"qqqqqqqqqqqqqqqq",
"qqq4qqqqqqqq4qqq",
"qqq1qqqqqqqq3qqq",
"qq<73qq%$qq37<qq",
"qq<94q$++$q49,qq",
"qq&3*+$$%$+*2&qq",
"q7<6%$%%%%$%6<8q",
";2;6>*#oo$*>6-3;",
"-:-62=oooo-16-:-",
"-,=6:+Xooo+:6=,-",
",4=6:+oooX+:6=4,",
"<4=6:#oooX$:6=4,",
",5=6:#OOOO$:6=4,",
",4=63;%%&%;36=4,",
">3;0<+XooX+<0:3>",
"<4:0:.    .:0:5<"
};
